<?xml version="1.0" standalone="no"?>
<!DOCTYPE svg PUBLIC "-//W3C//DTD SVG 1.1//EN" "http://www.w3.org/Graphics/SVG/1.1/DTD/svg11.dtd" >
<!--
2013-9-30: Created.
-->
<svg>
<metadata>
Created by iconfont
</metadata>
<defs>

<font id="larry-icon" horiz-adv-x="1024" >
  <font-face
    font-family="larry-icon"
    font-weight="500"
    font-stretch="normal"
    units-per-em="1024"
    ascent="896"
    descent="-128"
  />
    <missing-glyph />
    
    <glyph glyph-name="x" unicode="x" horiz-adv-x="1001"
d="M281 543q-27 -1 -53 -1h-83q-18 0 -36.5 -6t-32.5 -18.5t-23 -32t-9 -45.5v-76h912v41q0 16 -0.5 30t-0.5 18q0 13 -5 29t-17 29.5t-31.5 22.5t-49.5 9h-133v-97h-438v97zM955 310v-52q0 -23 0.5 -52t0.5 -58t-10.5 -47.5t-26 -30t-33 -16t-31.5 -4.5q-14 -1 -29.5 -0.5
t-29.5 0.5h-32l-45 128h-439l-44 -128h-29h-34q-20 0 -45 1q-25 0 -41 9.5t-25.5 23t-13.5 29.5t-4 30v167h911zM163 247q-12 0 -21 -8.5t-9 -21.5t9 -21.5t21 -8.5q13 0 22 8.5t9 21.5t-9 21.5t-22 8.5zM316 123q-8 -26 -14 -48q-5 -19 -10.5 -37t-7.5 -25t-3 -15t1 -14.5
t9.5 -10.5t21.5 -4h37h67h81h80h64h36q23 0 34 12t2 38q-5 13 -9.5 30.5t-9.5 34.5q-5 19 -11 39h-368zM336 498v228q0 11 2.5 23t10 21.5t20.5 15.5t34 6h188q31 0 51.5 -14.5t20.5 -52.5v-227h-327z" />
    

    
    <glyph glyph-name="guanliyuan" unicode="&#58880;" d="M878.592 114.688q4.096-14.336 7.168-36.352t3.072-44.544-3.584-42.496-10.752-30.208q-5.12-7.168-26.112-13.824t-52.736-12.288-70.656-10.752-77.824-8.704-75.776-5.12-64.512-1.536-64 2.048-74.752 5.12-76.288 7.168-69.12 9.216-53.248 9.728-27.136 9.728q-9.216 7.168-14.336 45.568t4.096 99.84q5.12 34.816 28.16 53.248t53.248 29.184 63.488 18.944 57.856 24.576q19.456 12.288 30.208 23.552t15.36 22.528 4.608 23.552-1.024 27.648q-2.048 22.528-14.848 34.816t-28.16 25.6q-8.192 6.144-13.824 17.92t-10.752 24.064q-5.12 13.312-9.216 29.696-2.048 2.048-6.144 7.168-3.072 5.12-7.168 13.824t-9.216 25.088-6.656 29.184 0.512 22.016q1.024 11.264 5.12 19.456 0 35.84 4.096 71.68 4.096 29.696 13.312 64.512t29.696 62.464q18.432 25.6 39.936 42.496t44.544 26.112 46.592 12.8 45.056 3.584q23.552-2.048 38.4-5.632t24.064-8.704 15.872-12.288 13.824-14.336l19.456 0q9.216 0 17.92-2.56t17.408-9.728 18.944-20.48q23.552-30.72 34.816-67.072t16.384-69.12q5.12-37.888 6.144-74.752 2.048-5.12 3.072-12.288t1.536-17.408-1.536-25.6q-2.048-20.48-6.144-32.256t-9.216-17.92q-5.12-7.168-11.264-10.24-4.096-16.384-9.216-29.696-5.12-12.288-10.752-24.064t-13.824-17.92q-17.408-14.336-28.672-24.064t-15.36-33.28q-3.072-14.336-2.048-28.672t7.68-29.184 21.504-28.16 41.472-23.552q23.552-9.216 51.712-16.896t54.272-17.408 46.592-25.088 28.672-39.936zM549.888 148.48q3.072 6.144 0.512 12.8t-7.68 12.8-12.288 13.312l-47.104 0q-7.168-7.168-11.264-13.312-4.096-5.12-6.656-11.264t0.512-11.264q7.168-14.336 12.288-25.088t11.264-16.896q-2.048-9.216-6.144-26.112t-7.68-34.816-6.144-33.792-2.56-24.064q0-5.12 4.608-12.288t10.752-14.848 12.8-12.8 11.776-5.12 12.288 5.12 13.824 11.776 11.264 14.336 4.608 12.8q0 6.144-3.072 20.992t-6.656 33.28-7.68 35.84-7.168 27.648q6.144 5.12 11.776 14.848t13.824 26.112z"  horiz-adv-x="1024" />

    
    <glyph glyph-name="sousuo" unicode="&#58937;" d="M916.00896-83.256576 623.127552 209.486592c105.206784 116.016128 102.151168 295.799808-9.807872 407.706624-55.927808 55.9104-130.2784 86.69696-209.378304 86.69696s-153.450496-30.78656-209.378304-86.69696c-115.429376-115.377152-115.429376-303.172608 0-418.54976 55.927808-55.9104 130.2784-86.69696 209.378304-86.69696 74.17856 0 143.988736 27.368448 198.535168 76.872704l292.846592-292.708352L916.00896-83.256576zM215.248896 219.277056c-104.03328 103.998464-104.03328 273.24928 0 377.247744 50.419712 50.384896 117.414912 78.133248 188.709888 78.133248s138.290176-27.748352 188.709888-78.133248c104.050688-103.998464 104.050688-273.24928 0-377.247744-50.419712-50.384896-117.414912-78.133248-188.709888-78.133248C332.663808 141.16224 265.6512 168.909568 215.248896 219.277056z"  horiz-adv-x="1024" />

    
    <glyph glyph-name="exit" unicode="&#59016;" d="M1024 288l-256 256v-192h-416c-17.672 0-32-14.328-32-32v-64c0-17.672 14.328-32 32-32h416v-192l256 256zM609 32h-64c-17.672 0-32-14.328-32-32v-97h-384v768h384v-96c0-17.672 14.328-32 32-32h64c17.672 0 32 14.328 32 32v192c0 17.672-14.328 32-32 32h-578c-16.568 0-30-13.432-30-30v-964c0-16.568 13.432-30 30-30h516c2.618 0 5.144 0.37 7.564 1h54.436c17.672 0 32 14.328 32 32v192c0 17.672-14.328 32-32 32z"  horiz-adv-x="1024" />

    
    <glyph glyph-name="pc" unicode="&#58882;" d="M412.881027 13.962382l-35.720549-108.926852c0-7.975649 7.888667-14.400988 17.630542-14.400988l234.971569 0c9.759271 0 17.647939 6.42534 17.647939 14.400988l-35.737946 108.926852L412.881027 13.962382zM897.013329 722.160879 127.522883 722.160879c-35.402301 0-64.098877-28.695552-64.098877-64.098877l0-553.774429c0-35.403325 28.696576-64.0999 64.098877-64.0999L897.013329 40.187673c35.420721 0 64.116273 28.696576 64.116273 64.0999L961.129602 658.062002C961.129602 693.464303 932.43405 722.160879 897.013329 722.160879zM911.908574 102.205145l-802.405089 0L109.503485 680.228861l802.405089 0L911.908574 102.205145zM506.082732 371.90875c52.433186 0 95.125521 43.662429 95.125521 97.349165 0 53.685713-42.692335 97.349165-95.125521 97.349165-30.160927 0-56.775074-14.683421-74.229608-37.167504-0.864694-0.459464-1.676176-1.023306-2.364861-1.799996-0.829901-0.952698-1.323135-2.046612-1.641383-3.177366-10.623965-15.706727-16.942881-34.69622-16.942881-55.203276C410.903999 415.572202 453.614753 371.90875 506.082732 371.90875zM506.082732 545.958808c15.053857 0 29.031197-4.693906 40.749076-12.671601-11.153014-1.059122-24.071232-6.317892-43.909046-16.942881-19.024286-10.165524-39.267329-2.01182-51.214429 4.976338C465.332632 536.357126 484.568742 545.958808 506.082732 545.958808zM442.037067 507.732182c9.759271-5.895267 24.63712-12.812817 41.384549-12.812817 8.789177 0 18.071587 1.905396 27.28339 6.882757 33.869389 18.071587 41.49302 17.577331 54.605665 11.576663 0.581238-0.281409 1.216711-0.317225 1.817392-0.458441 8.381901-12.389168 13.376659-27.425629 13.376659-43.661406 0-42.25129-33.392528-76.6661-74.424037-76.6661-41.067324 0-74.477248 34.414811-74.477248 76.6661C431.605483 483.340655 435.577958 496.402135 442.037067 507.732182zM697.850313 276.500796c1.570775 0 2.912329 1.12973 3.177366 2.64934l13.800307 78.710666c0.229221 1.200338-0.317225 2.435469-1.342578 3.176342-6.246261 4.376681-9.952676 11.435447-9.952676 19.026332 0 6.952342 3.246951 13.553691 8.858762 18.035772 0.98749 0.811482 1.445932 2.046612 1.146103 3.282766-0.298805 1.198292-1.25355 2.152013-2.487657 2.399653-12.761652 2.682086-24.795732 8.647961-34.767851 17.22429-1.02433 0.848321-2.419096 1.02433-3.618411 0.388856-23.367197-12.177344-41.880853-32.613792-54.587246-58.521858 24.285103-22.095227 42.939975-51.532677 54.727439-86.37216L697.850313 276.500796zM777.005095 421.006981c-10.006911-8.541537-22.025643-14.542204-34.768875-17.22429-1.252527-0.24764-2.187829-1.200338-2.470261-2.435469s0.106424-2.506077 1.112334-3.246951c5.612834-4.51892 8.859785-11.084453 8.859785-18.035772 0-7.554046-3.689019-14.612813-9.884115-18.953677-0.989537-0.671289-1.517563-1.941212-1.324158-3.14155l13.69593-78.81709c0.26606-1.518586 1.605567-2.64934 3.177366-2.64934l95.600335 0c0.900509 0 1.713015 0.318248 2.331092 0.953721 0.598634 0.635473 0.934279 1.481747 0.916882 2.366907-1.376347 65.299215-28.906353 118.244055-73.664743 141.575436C779.440563 422.031311 778.011005 421.854279 777.005095 421.006981zM726.653313 421.607662c40.961924 0 74.264401 34.060747 74.264401 75.993788 0 41.933041-33.302477 76.028581-74.264401 76.028581-23.896246 0-45.074591-11.612479-58.681494-29.577642-0.387833-0.282433-0.811482-0.494257-1.146103-0.847298-0.618077-0.741897-0.988514-1.553379-1.25355-2.435469-8.331759-12.282744-13.219069-27.143197-13.219069-43.168172C652.353097 455.668409 685.689343 421.607662 726.653313 421.607662zM726.653313 557.464863c11.735275 0 22.624277-3.634784 31.767518-9.847276-8.68173-0.847298-18.778692-4.942569-34.236755-13.271258-14.860453-7.871271-30.65723-1.553379-39.95806 3.882424C694.851003 549.982448 709.852672 557.464863 726.653313 557.464863zM676.672992 527.63958c7.623631-4.588505 19.218714-9.989515 32.278147-9.989515 6.884804 0 14.136975 1.447978 21.337981 5.329379 26.419719 14.117532 32.367175 13.765515 42.639123 9.036817 0.423649-0.177032 0.917906-0.211824 1.357927-0.317225 6.548136-9.708106 10.484795-21.425985 10.484795-34.097586 0-33.002648-26.085098-59.863413-58.117652-59.863413-32.066323 0-58.134025 26.861788-58.134025 59.863413C668.519288 508.579479 671.607626 518.779795 676.672992 527.63958zM175.509804 276.500796l95.565543 0c1.554402 0 2.929726 1.12973 3.195785 2.64934l13.765515 78.710666c0.24764 1.200338-0.298805 2.435469-1.323135 3.176342-6.246261 4.376681-9.953699 11.435447-9.953699 19.026332 0 6.952342 3.246951 13.553691 8.858762 18.035772 1.00591 0.811482 1.412163 2.046612 1.147126 3.282766-0.281409 1.198292-1.25355 2.152013-2.506077 2.399653-12.741185 2.682086-24.778336 8.647961-34.750455 17.22429-1.023306 0.848321-2.435469 1.02433-3.617387 0.388856-44.721551-23.331381-72.271-76.276221-73.629951-141.575436-0.01842-0.884137 0.318248-1.730411 0.917906-2.366907C173.77837 276.819045 174.608272 276.500796 175.509804 276.500796zM350.228081 421.006981c-10.005888-8.541537-21.989827-14.542204-34.801621-17.22429-1.216711-0.24764-2.170432-1.200338-2.434445-2.435469-0.319272-1.235131 0.122797-2.506077 1.111311-3.246951 5.594415-4.51892 8.859785-11.084453 8.859785-18.035772 0-7.554046-3.670599-14.612813-9.883091-18.953677-1.00591-0.671289-1.534959-1.941212-1.341554-3.14155l13.713326-78.81709c0.246617-1.518586 1.588171-2.64934 3.176342-2.64934l10.712993 0c13.34289 39.393195 35.296901 72.184019 64.469314 94.949512-12.459776 21.778003-29.260417 39.144532-49.980321 49.945529C352.664573 422.031311 351.235015 421.854279 350.228081 421.006981zM299.858904 421.607662c40.962947 0 74.283844 34.060747 74.283844 75.993788 0 41.933041-33.320896 76.028581-74.283844 76.028581-23.876804 0-45.072545-11.612479-58.680471-29.577642-0.38681-0.282433-0.794086-0.494257-1.12973-0.847298-0.618077-0.741897-1.023306-1.553379-1.25355-2.435469-8.329712-12.282744-13.201673-27.143197-13.201673-43.168172C225.594503 455.668409 258.899026 421.607662 299.858904 421.607662zM299.858904 557.464863c11.719926 0 22.608927-3.634784 31.78696-9.847276-8.683776-0.847298-18.778692-4.942569-34.256198-13.271258-14.842033-7.871271-30.619368-1.553379-39.937594 3.882424C268.075013 549.982448 283.093055 557.464863 299.858904 557.464863zM249.879606 527.63958c7.624654-4.588505 19.219737-9.989515 32.314986-9.989515 6.864338 0 14.083763 1.447978 21.302165 5.329379 26.436092 14.117532 32.383548 13.765515 42.638099 9.036817 0.441045-0.177032 0.899486-0.211824 1.376347-0.317225 6.564509-9.708106 10.447956-21.425985 10.447956-34.097586 0-33.002648-26.050306-59.863413-58.100256-59.863413-32.048927 0-58.134025 26.861788-58.134025 59.863413C241.725902 508.579479 244.832659 518.779795 249.879606 527.63958zM476.485647 318.681478c0 8.930393 4.112668 17.401322 11.33107 23.119557 1.270946 1.023306 1.817392 2.64627 1.464351 4.200672-0.387833 1.589195-1.589195 2.787486-3.195785 3.105734-16.341177 3.458775-31.731702 11.048637-44.526099 22.024619-1.289366 1.093914-3.106758 1.305739-4.625344 0.530073-57.268308-29.895891-92.548836-97.703229-94.294596-181.357488-0.034792-1.128707 0.405229-2.186805 1.181919-2.998287 0.793062-0.812505 1.853208-1.236154 2.964518-1.236154l122.409934 0c2.01182 0 3.741207 1.446955 4.076852 3.425006l17.648962 100.772124c0.316202 1.587148-0.388856 3.176342-1.694595 4.094248C481.233787 299.939625 476.485647 309.009188 476.485647 318.681478zM570.569442 371.133084c-12.777001-10.94119-28.183899-18.566868-44.543496-22.060435-1.589195-0.318248-2.805906-1.552356-3.158946-3.105734-0.370437-1.554402 0.176009-3.177366 1.428535-4.199649 7.236821-5.719258 11.383258-14.155395 11.383258-23.085788 0-9.636474-4.764514-18.671245-12.671601-24.177656-1.323135-0.952698-1.976004-2.541893-1.693572-4.131087l17.524119-100.876502c0.319272-1.978051 2.048659-3.425006 4.042059-3.425006l122.498962 0c1.111311 0 2.186805 0.423649 2.947122 1.236154 0.776689 0.811482 1.200338 1.86958 1.181919 2.998287-1.747807 83.619466-37.009915 151.461597-94.314039 181.357488C573.694619 372.438822 571.857784 372.225975 570.569442 371.133084z"  horiz-adv-x="1024" />

    
    <glyph glyph-name="youqinglianjie1" unicode="&#59162;" d="M129.092635 214.465928c-6.41306 0-12.82612 2.472308-17.721617 7.366781-9.790994 9.766434-9.790994 25.653263 0 35.418674L595.052043 740.933431c9.790994 9.790994 25.65224 9.790994 35.444257 0 9.790994-9.790994 9.790994-25.653263 0-35.444257L146.815275 221.832709C141.918755 216.938236 135.505695 214.465928 129.092635 214.465928zM451.564048-108.006508c-6.414083 0-12.827143 2.447748-17.721617 7.367805-9.790994 9.768481-9.790994 25.629727 0 35.419697L917.499919 418.487601c9.788947 9.790994 25.65224 9.790994 35.44221 0 9.79304-9.790994 9.79304-25.653263 0-35.419697L469.285664-100.638703C464.389144-105.558759 457.976084-108.006508 451.564048-108.006508zM88.778464-148.295096c-6.41306 0-12.82612 2.448772-17.72264 7.343245-9.790994 9.78997-9.790994 25.65224 0 35.443233l362.761024 362.761024c9.792017 9.815553 25.651216 9.815553 35.444257 0 9.78997-9.765411 9.78997-25.65224 0-35.418674L106.500081-140.951851C101.604584-145.846324 95.191524-148.295096 88.778464-148.295096zM572.459488 335.410488c-6.414083 0-12.827143 2.422166-17.721617 7.343245-9.790994 9.740852-9.790994 25.65224 0 35.417651l362.762047 362.762047c9.788947 9.815553 25.65224 9.815553 35.44221 0 9.79304-9.766434 9.79304-25.62768 0-35.419697L590.181105 342.753733C585.286632 337.833677 578.872548 335.410488 572.459488 335.410488z"  horiz-adv-x="1024" />

    
    <glyph glyph-name="liuyan" unicode="&#58932;" d="M259.378957 265.380528l316.830949 0 0-62.87091L259.378957 202.509618 259.378957 265.380528zM259.378957 391.124394l506.932588 0 0-62.834071L259.378957 328.290323 259.378957 391.124394zM259.378957 516.943984l506.932588 0 0-62.909795L259.378957 454.034189 259.378957 516.943984zM5.912152 386.210477c0-172.697247 94.173846-318.623781 255.29443-366.07142-1.25662-5.332449-1.827625-10.738575-1.827625-16.184611l0-134.920876c0-44.937468 32.596396-48.208978 65.156976-16.45067l188.308807 161.27408 115.234511 0c216.338187 0 391.698077 171.134659 391.698077 382.217145 0 211.121372-175.35989 372.355543-391.698077 372.355543L397.612275 768.429669C181.274088 768.429669 5.912152 597.292963 5.912152 386.210477z"  horiz-adv-x="1024" />

    
    <glyph glyph-name="tuichu" unicode="&#59244;" d="M753.1682 617.80002c28.205389-20.058848 53.28253-42.782386 75.221192-68.168566 21.937638-25.38618 40.74089-52.806693 56.411801-82.267679 15.669888-29.462009 27.583219-60.649312 35.729759-93.554746 8.146541-32.908504 12.221346-66.284659 12.221346-100.136651 0-58.294684-11.123338-112.981191-33.375132-164.072823-22.251793-51.083445-52.341089-95.589079-90.26277-133.505643-37.926798-37.926798-82.431408-68.012-133.5169-90.264816-51.081399-22.254863-105.776092-33.379225-164.06259-33.379225-57.671491 0-112.048959 11.124362-163.134451 33.379225-51.090609 22.252817-95.746668 52.338019-133.983527 90.264816-38.239929 37.922704-68.325132 82.426291-90.26277 133.505643-21.941732 51.091632-32.908504 105.778138-32.908504 164.078962 0 33.217543 3.913123 65.812915 11.749602 97.781 7.837502 31.968086 18.961864 62.36642 33.376155 91.204212 14.424524 28.829606 32.286334 55.784514 53.597709 80.852446 21.309328 25.077142 45.130873 47.642067 71.458495 67.701938 13.792121 10.030447 28.67611 13.791098 44.661176 11.285021 15.98302-2.511193 28.991288-10.343579 39.020712-23.508413 10.029424-13.166881 13.790074-27.89635 11.285021-44.194548-2.512217-16.298198-10.343579-29.456892-23.509437-39.491433-39.49041-28.829606-69.735248-64.24521-90.732467-106.241696-20.996197-41.99751-31.492248-87.13043-31.492248-135.38955 0-41.370223 7.831362-80.395028 23.503297-117.062136 15.669888-36.671201 37.136805-68.635193 64.401776-95.903234 27.269064-27.269064 59.236126-48.894593 95.909373-64.877613 36.666084-15.98302 75.68168-23.974018 117.061113-23.974018 41.36613 0 80.385818 7.990998 117.052926 23.974018 36.671201 15.98302 68.638263 37.608549 95.90835 64.877613 27.26497 27.267017 48.888454 59.232033 64.87352 95.903234 15.98302 36.667108 23.974018 75.692936 23.974018 117.062136 0 48.88743-11.280928 95.118358-33.846876 138.680503-22.565948 43.561122-54.218856 79.449493-94.961792 107.654882-13.788028 9.401114-22.095227 22.25077-24.915459 38.548968s0.465604 31.339776 9.868765 45.131897c9.406231 13.162788 22.255887 21.157879 38.554084 23.972994C724.333478 630.487993 739.370962 627.201134 753.1682 617.80002L753.1682 617.80002 753.1682 617.80002zM511.534907 270.852146c-16.302291 0-30.252001 5.796006-41.845037 17.392112-11.596106 11.599176-17.395182 25.548886-17.395182 41.84606L452.294688 687.375631c0 16.298198 5.799076 30.404474 17.395182 42.312688 11.593036 11.909238 25.542746 17.86181 41.845037 17.86181 16.921391 0 31.179117-5.952572 42.778292-17.86181 11.594059-11.908214 17.391089-26.01449 17.391089-42.312688l0-357.285313c0-16.297175-5.79703-30.246885-17.391089-41.84606C542.714024 276.649176 528.456299 270.852146 511.534907 270.852146L511.534907 270.852146 511.534907 270.852146zM511.534907 270.852146"  horiz-adv-x="1024" />

    
    <glyph glyph-name="quitquanping" unicode="&#59017;" d="M984.633 525.122l-161.961 0.592 181.721 180.644c19.868 20.084 19.868 52.605 0 72.635-19.976 20.030-52.282 20.030-72.15 0l-183.498-182.529 1.238 165.191c0.485 20.73-15.884 38.767-36.506 38.283h-26.114c-20.622-0.538-37.69-12.869-38.121-33.598l-1.077-286.608c0-0.377 1.346-0.646 1.346-1.023l-1.992-18.791c-0.162-10.338 2.261-19.653 8.938-26.276 6.569-6.73 15.83-10.769 26.114-10.499l18.63 0.377c0.431 0 0.7 0.162 1.077 0.215l286.985-1.615c20.622 0.485 37.636 17.607 38.175 38.39v26.329c-3.123 24.445-22.237 38.767-42.805 38.283zM1025.5 88.184l-0.054 26.329c-0.485 20.784-17.445 37.906-37.96 38.39l-285.477-1.561c-0.431 0-0.7 0.162-1.077 0.162l-18.576 0.431c-10.23 0.323-19.437-3.769-26.006-10.446-6.623-6.677-9.046-15.991-8.83-26.383l1.992-18.791c0-0.377-1.346-0.646-1.346-1.023l1.077-284.4c0.431-20.73 17.391-33.060 37.96-33.544l27.675-0.054c20.514-0.485 36.775 17.607 36.29 38.336l-1.185 161.853 182.744-181.398c19.761-20.030 51.959-20.030 71.773 0s19.814 52.551 0 72.635l-182.529 182.26 160.884 0.592c20.46-0.538 39.521 12.169 42.644 36.613zM369.042 141.435c-6.569 6.677-15.83 10.769-26.114 10.446l-18.684-0.431c-0.323 0-0.646-0.162-1.023-0.162l-283.162 1.615c-20.568-0.485-37.636-17.607-38.121-38.39l-0.054-26.329c3.123-24.445 22.237-37.098 42.805-36.721l159.699-0.592-183.229-182.206c-19.922-20.084-19.922-52.605 0-72.635s52.174-20.030 72.096 0l183.498 182.475-1.238-160.884c-0.485-20.73 15.884-38.767 36.452-38.283h26.168c20.622 0.538 37.69 12.815 38.121 33.598l1.077 282.354c0 0.377-1.346 0.646-1.346 1.023l2.046 18.791c0.108 10.338-2.315 19.653-8.992 26.329zM377.28 479.732l-1.077 286.608c-0.377 20.73-17.391 33.114-37.906 33.652h-27.675c-20.514 0.431-36.775-17.607-36.29-38.283l1.238-164.061-182.69 181.344c-19.868 20.030-52.013 20.030-71.827 0s-19.814-52.551 0-72.635l180.914-180.644-159.376-0.592c-20.46 0.485-39.467-13.838-42.59-38.283l0.054-26.329c0.485-20.784 17.445-37.906 37.96-38.39l285.477 1.615c0.377-0.054 0.646-0.215 1.023-0.215l18.576-0.431c10.23-0.269 19.491 3.769 26.006 10.499 6.623 6.677 9.046 15.991 8.83 26.383l-2.046 18.791c0 0.377 1.4 0.592 1.4 0.969z"  horiz-adv-x="1028" />

    
    <glyph glyph-name="xiaolian" unicode="&#58986;" d="M511.999488 744.967304c-245.74903 0-444.967304-199.219297-444.967304-444.967304 0-245.748007 199.218274-444.967304 444.967304-444.967304 245.748007 0 444.967304 199.219297 444.967304 444.967304C956.966793 545.74903 757.747495 744.967304 511.999488 744.967304zM350.072539 533.502102c42.302455 0 76.596516-40.735773 76.596516-90.985224s-34.293037-90.985224-76.596516-90.985224c-42.303478 0-76.596516 40.735773-76.596516 90.985224S307.769061 533.502102 350.072539 533.502102zM509.523087 43.310803c-202.848964 4.956895-237.351779 171.880649-237.351779 171.880649 272.15033-223.125777 474.705606 0 474.705606 0C704.721815 43.273964 517.45678 43.273964 509.523087 43.310803zM674.365436 351.532677c-42.303478 0-76.597539 40.735773-76.597539 90.985224s34.294061 90.985224 76.597539 90.985224c42.302455 0 76.596516-40.735773 76.596516-90.985224S716.667891 351.532677 674.365436 351.532677z"  horiz-adv-x="1024" />

    
    <glyph glyph-name="chongzhi" unicode="&#59003;" d="M510.641561 748.775027c-122.063033 0-232.705969-48.88436-313.429479-128.137379l21.840424 0c81.94943-149.673881 131.74044-244.568135 149.386332-284.688901l1.706875 0c5.975085 16.499789 22.334681 49.79101 49.083905 99.876732l100.302427 184.813193 89.205695 0L431.608553 319.302625l139.569756 0 0-66.584488L408.560628 252.718137l0-91.76703 162.617681 0 0-67.436902L408.560628 93.514205l0-133.594671L324.9033-40.080465 324.9033 93.514205 156.30951 93.514205l0 67.436902L324.9033 160.951107l0 91.76703L156.30951 252.718137l0 66.584488 143.837966 0L153.604912 571.028786C96.877933 496.041932 63.223439 402.631472 63.223439 301.356904c0-247.101841 200.315258-447.418123 447.418123-447.418123S958.059684 54.25404 958.059684 301.356904 757.743402 748.775027 510.641561 748.775027zM833.598021 98.323745l-30.106692 0c-11.946077 0-20.149922 2.549056-24.610514 7.646144-4.460592 4.300956-6.690376 12.18553-6.690376 23.654746l0 73.353658c-15.769149-0.557702-29.947056-1.074472-42.530652-1.553379-0.876973-25.804712-5.974062-46.075385-15.292288-60.809971-12.585643-20.22974-35.443233-36.07973-68.575842-47.548946-3.185552 5.257747-7.167237 11.151991-11.946077 17.681708 31.697933 9.875928 53.0441 23.654746 64.034409 41.336454 7.885598 12.503778 12.225439 28.67304 13.022595 48.50369-10.512425-0.477884-19.553335-0.955768-27.119661-1.432629-4.620227-0.320295-10.990309-1.594311-19.11536-3.823072l-9.79611 20.549012c8.441253 1.911536 15.847943 5.734608 22.222117 11.469216 15.609513 14.733563 30.384008 30.823006 44.322461 48.26526l-83.032088 0 0 17.681708 112.540146 0c-5.574972 9.874905-10.751878 18.159592-15.530718 24.849968l16.96437 9.55768c5.734608-7.806803 11.786441-16.96437 18.159592-27.477818l-12.664438-6.928806 109.672842 0 0-17.681708L747.341494 275.61666c-15.213493-17.921161-33.212426-37.035498-54.000891-57.345056 49.460482 1.034563 88.844467 1.950422 118.155027 2.7486-9.001001 10.830673-18.199501 21.462824-27.597545 31.897478l13.858636 10.275018c24.530696-24.691355 44.203758-46.514383 59.018162-65.470107l-16.72594-12.18553c-4.939499 6.451946-9.956769 12.822027-15.052834 19.11536-11.789511-0.319272-22.938432-0.638543-33.450856-0.955768l0-70.965262c0-7.16826 0.874927-11.707646 2.62785-13.620206 2.069125-2.867304 6.290263-4.299933 12.663414-4.299933l22.698978 0c10.513448 0 16.406668 3.983731 17.681708 11.9471 1.11438 6.689353 1.989307 17.121959 2.62785 31.30089 5.734608-2.231831 12.742209-4.621251 21.026896-7.16826-1.116427-11.151991-2.470261-21.265326-4.062526-30.345122C864.260367 105.730435 853.191264 98.323745 833.598021 98.323745z"  horiz-adv-x="1024" />

    
    <glyph glyph-name="neirongfabu" unicode="&#58924;" d="M114.176412 428.012536 395.521149 705.114644 114.176412 428.012536 114.176412 428.012536zM951.030082-145.335694 951.030082 705.114644 376.090611 705.114644 100.579743 428.012536l0-573.34823L951.030082-145.335694 951.030082-145.335694zM442.158329 745.096241l0-377.923352L63.9945 367.172889l0 29.572526L413.594783 745.335694 442.158329 745.096241zM391.005298 720.394652l0-308.821531L82.185814 411.573121 391.005298 720.394652zM291.703665 284.78139l465.432405 0 0-48.482201L291.703665 236.299189 291.703665 284.78139 291.703665 284.78139zM292.219411 60.320199l465.432405 0 0-48.482201L292.219411 11.837998 292.219411 60.320199 292.219411 60.320199zM291.862277 167.679345l278.774191 0 0-48.482201L291.862277 119.197144 291.862277 167.679345 291.862277 167.679345zM320.621275 156.482329"  horiz-adv-x="1024" />

    
    <glyph glyph-name="fuxuan01" unicode="&#59176;" d="M844.591911 749.051319 178.248683 749.051319c-63.450101 0-114.886587-51.411927-114.886587-114.852818l0-666.154939c0-63.441914 51.436486-114.864074 114.886587-114.864074l666.343227 0c63.451124 0 114.886587 51.42216 114.886587 114.864074L959.478498 634.197478C959.478498 697.639392 908.043035 749.051319 844.591911 749.051319zM823.308165 419.862925l-354.422102-354.62267c-8.895601-8.911974-23.322172-8.911974-32.219819 0l-7.148817 7.151887-0.027629-0.032746-7.732102 7.789407-33.422204 33.44574c-0.215918 0.229221-0.282433 0.517793-0.490164 0.741897L234.549967 268.83214c-8.898671 8.900717-8.898671 23.335475 0 32.236192l48.328705 48.359404c8.899694 8.906857 23.325241 8.906857 32.220842 0l137.855718-138.929166 289.803385 289.953811c8.894577 8.896624 23.321148 8.896624 32.216749 0l48.331775-48.353264C832.204789 443.19226 832.204789 428.763642 823.308165 419.862925z"  horiz-adv-x="1024" />

    
    <glyph glyph-name="huiyuan" unicode="&#58971;" d="M518.849422 139.118222c0.091022-0.273067 0.159289-0.523378 0.227556-0.796444l3.367822-6.144C522.581333 132.177778 520.897422 135.3408 518.849422 139.118222zM512.091022 151.906844c0.068267-0.477867 3.777422-7.236267 6.7584-12.788622-0.022756 0.091022-0.045511 0.2048-0.068267 0.295822L512.091022 151.906844zM512 720.977778C279.483733 720.977778 91.022222 532.493511 91.022222 300 91.022222 67.483733 279.483733-120.977778 512-120.977778 744.493511-120.977778 932.977778 67.483733 932.977778 300 932.977778 532.493511 744.493511 720.977778 512 720.977778zM512-75.466667C304.651378-75.466667 136.533333 92.651378 136.533333 300S304.651378 675.466667 512 675.466667C719.371378 675.466667 887.466667 507.348622 887.466667 300S719.371378-75.466667 512-75.466667zM682.666667 425.155556l-68.266667 0c-12.583822 0-22.755556-10.171733-22.755556-22.755556s10.171733-22.755556 22.755556-22.755556l13.289244 0-105.244444-247.466667c-1.661156 1.092267-2.616889 3.458844-3.367822 6.144L386.844444 379.644444l22.755556 0c12.583822 0 22.755556 10.171733 22.755556 22.755556s-10.171733 22.755556-22.755556 22.755556l-91.022222 0c-12.583822 0-22.755556-10.171733-22.755556-22.755556s10.171733-22.755556 22.755556-22.755556l12.242489 0L477.866667 106.577778c4.733156-13.198222 19.319467-22.755556 34.133333-22.755556s29.400178 9.557333 34.133333 22.755556l126.043022 273.066667L682.666667 379.644444c12.583822 0 22.755556 10.171733 22.755556 22.755556S695.250489 425.155556 682.666667 425.155556z"  horiz-adv-x="1024" />

    
    <glyph glyph-name="jinlingyingcaiwangtubiao27" unicode="&#59300;" d="M459.213 741.581c-10.598 0-19.2-8.602-19.2-19.2s8.602-19.2 19.2-19.2c257.459 0 466.893-209.434 466.893-466.842 0-119.757-45.286-233.6-127.488-320.589-7.27-7.706-6.938-19.866 0.742-27.136 3.738-3.507 8.474-5.248 13.21-5.248 5.094 0 10.163 2.022 13.952 6.016 89.011 94.157 138.010 217.37 138.010 346.982 0 278.554-226.688 505.216-505.318 505.216zM459.213 647.654c-226.79 0-411.315-184.525-411.315-411.315s184.525-411.315 411.315-411.315c226.816 0 411.366 184.525 411.366 411.315s-184.525 411.315-411.366 411.315zM459.213-136.602c-205.619 0-372.915 167.296-372.915 372.915s167.296 372.941 372.915 372.941c205.645 0 372.966-167.296 372.966-372.915s-167.296-372.941-372.966-372.941zM463.155 212.659c6.298-4.378 19.2-6.579 38.733-6.579h113.434c20.685 0 33.92 2.688 39.706 8.064 5.811 5.376 10.112 12.006 12.928 19.866 2.79 7.885 4.224 18.662 4.224 32.435v110.566c0 32.307-18.56 48.461-55.603 48.461h-117.402c-10.419 0-19.763-1.408-28.058-4.224-8.269-2.816-13.952-5.965-16.998-9.446-3.072-3.482-5.478-7.834-7.194-13.030-1.741-5.222-2.611-12.723-2.611-22.477v-121.779c0-10.112 1.562-18.509 4.71-25.216s7.859-12.237 14.131-16.64zM483.917 362.035c0 6.4 0.461 11.392 1.357 15.002s2.586 6.195 5.018 7.757c2.458 1.562 6.477 2.33 12.032 2.33h109.082c6.528 0 10.957-0.819 13.261-2.458s4.173-4.019 5.658-7.142c1.485-3.123 2.227-8.013 2.227-14.746v-94.694c0-10.496-1.894-17.075-5.658-19.686s-9.344-3.917-16.717-3.917h-107.827c-6.195 0-10.496 0.64-12.877 1.971s-3.891 3.61-4.557 6.886c-0.64 3.277-0.973 7.859-0.973 13.773v94.925zM412.109 155.29c3.789 0.333 7.296 1.946 10.522 4.813s5.222 6.81 6.067 11.75c0.973 6.784-3.763 17.306-14.259 31.59-10.496 14.285-18.432 24.55-23.782 30.822-5.376 6.272-16.154 17.178-32.333 32.691v12.877h47.539c4.941 0 9.19 1.843 12.749 5.555s5.197 8.090 4.941 13.158c-0.23 5.043-2.099 9.216-5.555 12.518-3.482 3.277-7.526 4.941-12.16 4.941h-47.539v78.746l24.269 9.421c8.576 3.302 15.181 7.142 19.789 11.52s7.014 8.883 7.194 13.491c0 4.454-1.894 8.346-5.709 11.648s-8.499 4.992-14.131 5.069c-5.606 0.077-14.234-2.611-25.882-8.038-11.648-5.427-26.086-10.726-43.341-15.846-17.254-5.12-31.334-8.474-42.214-10.035-10.906-1.587-17.946-3.763-21.171-6.554-3.226-2.816-4.992-6.374-5.325-10.65-0.819-6.426 0.87-11.264 5.069-14.49 4.224-3.226 9.958-4.787 17.229-4.71 7.245 0.077 23.27 3.174 48.051 9.293v-68.838h-62.413c-4.122 0-7.885-1.741-11.238-5.197-3.405-3.456-5.094-7.808-5.094-13.030-0.154-5.222 1.434-9.523 4.736-12.902s7.168-5.043 11.622-5.043h52.506l-7.936-19.814c-4.454-11.392-12.058-26.086-22.784-44.083l-24.781-39.117c-3.123-4.966-7.757-12.467-13.85-22.528-6.118-10.086-9.702-17.51-10.778-22.298s0.077-9.165 3.456-13.133c3.405-3.968 7.475-5.888 12.262-5.811 4.787 0.077 9.984 1.894 15.59 5.453 5.606 3.558 11.059 9.856 16.358 18.944 5.274 9.088 11.494 19.482 18.688 31.206 7.168 11.725 15.053 24.934 23.654 39.629v-203.827c0-5.12 1.664-9.549 5.043-13.261s7.501-5.658 12.39-5.837c5.043-0.333 9.421 1.357 13.133 5.069 3.738 3.738 5.581 8.397 5.581 14.003v206.541l14.848-18.33 14.131-20.557c8.166-12.032 16.435-17.638 24.858-16.819zM494.822 179.072c-2.816-0.819-6.4-3.251-10.778-7.322-4.378-4.045-9.421-12.826-15.13-26.368s-13.21-27.366-22.528-41.472c-9.318-14.131-16.922-24.934-22.81-32.461-5.862-7.501-15.795-19.43-29.824-35.789-6.784-7.936-10.138-14.362-10.061-19.302 0.102-4.941 1.997-8.832 5.709-11.648 3.738-2.816 7.219-4.301 10.522-4.454 5.632-0.666 12.186 1.818 19.712 7.424 7.501 5.632 18.33 18.202 32.461 37.786 14.106 19.558 22.451 31.232 25.011 35.046 2.586 3.789 10.778 17.434 24.653 40.883 9.574 16.179 14.131 28.57 13.619 37.146-0.512 8.576-2.842 14.438-7.066 17.587-4.224 3.098-8.704 4.096-13.491 2.944zM677.35 67.635l-20.813 35.174c-9.907 16.512-20.25 33.254-31.078 50.278-10.803 16.998-18.944 26.573-24.397 28.723-5.786 1.971-11.29 1.613-16.563-1.101-5.299-2.714-7.782-8.294-7.45-16.717 0-2.125 0.998-5.555 2.97-10.266 1.997-4.71 13.619-25.421 34.918-62.157s33.766-58.854 37.402-66.381 7.014-12.749 10.138-15.718c9.574-9.907 16.973-11.75 22.17-5.581 5.197 6.195 8.294 11.366 9.267 15.488 0.998 5.12 0.461 11.11-1.613 17.946-2.048 6.81-7.014 16.922-14.95 30.31z"  horiz-adv-x="1024" />

    
    <glyph glyph-name="lajixiang01" unicode="&#58896;" d="M60.935326 571.990694l0 59.643402 894.668423 0 0-59.643402L60.935326 571.990694 60.935326 571.990694zM299.563168 631.634096 299.563168 750.8902l59.644425 0 0-119.255081L299.563168 631.635119 299.563168 631.634096zM359.207593 691.246799 359.207593 750.8902l357.825618 0 0-59.642378L359.207593 691.247822 359.207593 691.246799zM657.391856 631.634096 657.391856 750.8902l59.641355 0 0-119.255081L657.391856 631.635119 657.391856 631.634096zM180.220083-143.807898 180.220083 571.990694l59.613726 0 0-715.799616L180.220083-143.808922 180.220083-143.807898zM418.820296 35.177566 418.820296 571.990694l59.642378 0 0-536.813129L418.820296 35.177566 418.820296 35.177566zM538.0764 35.177566 538.0764 571.990694l59.672054 0 0-536.813129L538.0764 35.177566 538.0764 35.177566zM776.676613-143.807898 776.676613 571.990694l59.642378 0 0-715.799616L776.676613-143.808922 776.676613-143.807898zM239.834832-143.807898l0 59.642378 536.842805 0 0-59.642378L239.834832-143.807898 239.834832-143.807898z"  horiz-adv-x="1024" />

    
    <glyph glyph-name="kuozhan" unicode="&#59193;" d="M896.373785-127.286172 192.86148-127.286172c-105.961441 0-191.860721 85.89928-191.860721 191.860721L1.000759 704.138279C1.000759 810.10072 86.899039 896 192.86148 896L896.373785 896c105.968439 0 191.86672-85.89928 191.86672-191.860721l0-639.56373C1088.241504-41.386892 1002.342224-127.286172 896.373785-127.286172zM1024.010997 695.133451c0 75.601764-57.298179 136.896979-132.905942 136.896979L202.128244 832.03043c-75.608762 0-136.896979-61.295215-136.896979-136.896979l0-620.524323c0-75.608762 61.289216-136.896979 136.896979-136.896979l688.975811 0c75.608762 0 132.905942 61.289216 132.905942 136.896979L1024.009998 695.133451zM575.207254 387.570639c0-99.962888-12.011103-121.931589-27.980251-173.883058-14.006621-51.996458-43.98839-105.910453-89.941305-161.884952-8.007069 5.992555-19.999176 14.991384-35.975322 26.982492-8.007069 5.992555-13.021859 10.021583-14.984386 11.992107 45.951916 47.96643 75.928685 95.93386 89.934307 143.90029 13.961632 45.951916 16.986903 61.922064 16.986903 155.892397L513.247199 577.435841l198.403143 0C706.329626 609.32215 696.581977 638.893017 684.035003 670.376423l65.331241 23.983215c21.437829-51.189652 25.7038-86.941029 31.696354-98.933136l-23.13242-17.99066 137.05694 0 0-63.955573L575.207254 513.480268 575.207254 387.570639zM382.342775 366.5867c29.97577 9.977593 41.967877 16.967907 71.950645 24.980974 0-23.983215 0.978764-43.003627 2.993278-56.959261-4.029028-2.014514-11.006345-4.029028-20.983938-5.998553-29.97577-8.007069-35.975322-12.989867-53.958985-18.98842l0-158.885675c1.963526-55.929509-25.019965-83.941752-80.948474-83.941752-14.006621-1.969525-34.99056-2.999277-62.951815-2.999277-2.014514 25.997729-5.998553 45.996905-11.992107 59.958537 27.961255-1.969525 48.945194-2.999277 62.951815-2.999277 25.95374-1.963526 31.946294 10.028581 29.982768 35.975322L319.385961 294.637055c-51.996458-16.021136-98.933136-28.985008-116.917798-34.977563l-5.999553 59.958537c1.969525 0 3.984039 0.984762 5.999553 2.999277 27.961255 7.962079 74.942923 18.950429 116.917798 28.97801l0 96.867634L205.460441 446.461434l0 61.960055 113.92452 1.995519L319.384961 705.347987l62.957814 0 0-194.930981 77.943199-1.995519L460.285974 446.461434l-77.943199 2.001517L382.342775 366.5867z"  horiz-adv-x="1089" />

    
    <glyph glyph-name="gerenxinxi" unicode="&#59026;" d="M523.901 101.604c0 150.152 121.726 271.879 271.879 271.879 34.283 0 67.051-6.407 97.257-17.986L893.037 730.64 0 730.64 0-130.64l654.363 0C576.134-82.899 523.901 3.253 523.901 101.604zM496.128 595.692 825.56 595.692l0-31.758L496.128 563.934 496.128 595.692zM496.128 496.465 825.56 496.465l0-31.751L496.128 464.714 496.128 496.465zM263.931 595.657c73.439 0 132.963-58.646 132.963-130.979 0-72.338-59.523-130.983-132.963-130.983-73.431 0-132.96 58.646-132.96 130.983C130.971 537.012 190.5 595.657 263.931 595.657zM496.128 46.901c0-44.857-78.604-46.566-175.549-46.566L207.313 0.335c-96.959 0-175.563 0.05-175.563 46.566l0 13.282c0 113.812 78.604 206.076 175.563 206.076l113.267 0c96.958 0 175.549-92.265 175.549-206.076L496.129 46.901zM496.128 397.238l162.735 0 0-31.75L496.128 365.488 496.128 397.238zM793.796 333.778c-127.138 0-230.205-103.065-230.205-230.202 0-127.142 103.067-230.208 230.205-230.208 127.141 0 230.204 103.066 230.204 230.208C1024 230.713 920.937 333.778 793.796 333.778zM753.818-51.065 619.204 88.103l34.539 28.013 77.916-61.939c31.892 38.548 102.796 114.971 200.634 175.89l8.221-19.38C850.567 126.929 777.279 9.032 753.818-51.065z"  horiz-adv-x="1024" />

    
    <glyph glyph-name="duanxin" unicode="&#59032;" d="M880.39 601.326 143.61 601.326c-36.676 0-66.515-29.839-66.515-66.515l0-491.187c0-36.676 29.839-66.515 66.515-66.515l736.78 0c36.677 0 66.516 29.839 66.516 66.515L946.906 534.811C946.905 571.488 917.066 601.326 880.39 601.326zM895.74 382.851c0 0-365.384-152.7-369.809-154.086s-11.627-3.302-26.42 2.764L128.26 383.741l0.001 55.299 387.753-158.98L895.74 438.278 895.74 382.851z"  horiz-adv-x="1024" />

    
    <glyph glyph-name="weibiaoti2" unicode="&#58949;" d="M962.24 736.8 62.08 736.8c-34.304 0-62.08-27.776-62.08-62.08l0-760.576c0-34.432 27.776-62.208 62.08-62.208l900.224 0C996.672-148 1024.448-120.224 1024.448-85.792L1024.448 674.72C1024.384 709.024 996.672 736.8 962.24 736.8zM558.784 651.488l131.968 0L690.752 519.52 558.784 519.52 558.784 651.488zM333.76 651.488l131.904 0L465.664 519.52l-131.904 0L333.76 651.488zM100.928 651.488l131.968 0L232.896 519.52l-131.968 0L100.928 651.488zM923.456-46.944 100.928-46.944 100.928 449.696l822.528 0L923.456-46.944zM923.456 519.52l-131.904 0L791.552 651.488l131.904 0L923.456 519.52zM747.712 136.416c0.768-4.032 0.512-9.024-0.512-14.656-1.024-5.824-2.624-11.648-4.992-17.472-2.368-6.016-5.248-11.264-8.64-16s-7.104-8.192-11.2-10.176c-4.032-1.92-7.552-3.072-10.688-3.072-3.008 0-6.464 0.768-10.112 1.984-3.264 1.088-7.616 1.984-12.672 2.88-5.056 0.832-10.176 1.024-15.424 0.512-5.248-0.512-10.496-1.6-15.744-3.392-5.248-1.6-9.664-4.48-13.504-8.576-8-8.448-12.8-18.048-14.144-28.928-1.408-10.88 0.128-21.184 4.48-30.912 3.52-6.72 2.88-13.568-1.472-20.352-1.984-2.688-5.248-5.44-9.6-8.32-4.48-2.88-9.28-5.504-14.464-7.872-5.312-2.368-10.688-4.16-16.576-5.632-5.696-1.344-10.752-1.984-15.232-1.984-3.008 0-5.888 1.28-8.64 3.648-2.624 2.304-4.48 4.864-5.504 7.552L562.368-24.352c-3.776 10.56-10.112 19.52-19.008 27.2-9.024 7.616-19.392 11.392-31.232 11.392-11.52 0-21.888-3.776-31.104-11.392-9.344-7.68-15.872-16.512-19.648-26.688-1.664-4.032-4.224-7.04-7.616-8.96-3.392-1.728-7.104-2.752-11.136-2.752-4.8 0-10.048 0.896-16 2.56-5.888 1.792-11.84 3.84-17.792 6.336-5.888 2.624-11.264 5.504-16 8.896-4.736 3.392-8.32 6.848-10.688 10.112-1.664 2.368-2.624 5.184-2.752 8.512-0.128 3.2 1.088 7.616 3.84 13.376 3.712 7.808 5.184 16.64 4.288 26.688-0.832 9.92-5.184 19.2-12.928 27.648-4.736 5.056-10.496 8.384-17.28 9.92-6.784 1.472-13.184 2.112-19.264 1.664-7.168-0.32-14.4-1.536-21.824-3.968-4.736-1.408-9.408-1.152-14.208 0.896-3.776 1.472-7.168 4.544-10.368 9.408-3.264 4.928-6.144 10.304-8.64 16.192-2.56 6.016-4.48 12.032-5.824 18.304-1.344 6.272-1.664 11.456-1.024 15.424 1.024 7.488 4.416 12.224 10.112 14.272 10.176 4.096 19.328 10.752 27.392 20.032C321.536 180.064 325.568 190.56 325.568 202.016c0 11.84-4.032 22.272-12.16 30.976C305.344 241.824 296.192 248.16 286.08 252.32 283.008 253.28 280.512 255.776 278.464 259.616 276.416 263.584 275.456 267.424 275.456 271.584c0 4.416 0.64 9.344 1.984 14.72s3.136 10.624 5.312 15.744C284.928 307.168 287.488 311.84 290.368 316.064c2.816 4.224 5.952 7.36 9.344 9.344C302.528 327.136 305.152 327.776 307.648 327.456c2.56-0.32 5.312-1.024 8.384-2.048 10.112-4.032 20.672-5.312 31.68-3.776 11.008 1.472 20.736 6.336 29.184 14.4 4.032 4.096 6.976 9.088 8.896 15.04C387.712 357.024 388.928 362.848 389.44 368.608c0.512 5.76 0.512 11.008 0 15.744C388.928 389.024 388.544 392.416 388.16 394.464c-0.64 2.048-1.28 4.416-1.792 7.104C385.856 404.32 386.048 406.688 387.072 408.736 389.184 413.536 392.768 417.632 398.08 421.216c5.248 3.52 10.88 6.528 17.024 8.832C421.184 432.48 427.136 434.272 432.832 435.424c5.76 1.216 10.368 1.792 13.696 1.792 4.48 0 7.872-1.408 10.432-4.288C459.52 430.048 461.248 427.104 462.272 424.032 466.112 414.88 472.192 406.816 480.64 399.84 489.088 392.992 499.008 389.408 510.592 389.408c11.84 0 22.4 3.328 31.488 9.92 9.088 6.592 15.488 14.976 19.2 25.152 1.344 2.688 3.584 5.504 6.4 8.384 2.816 2.88 5.888 4.288 8.96 4.288 4.672 0 9.792-0.704 15.36-2.048C597.76 433.824 603.328 431.904 608.64 429.6 614.08 427.232 618.944 424.16 623.552 420.448c4.608-3.712 8.256-7.808 10.88-12.16 1.728-2.688 2.24-5.696 1.6-8.896C635.328 396.064 634.688 393.824 633.92 392.416 629.568 382.624 628.16 372.32 629.888 361.504c1.6-10.816 6.528-20.288 14.72-28.416 8.064-8.128 17.984-12.608 29.888-13.44 11.776-0.832 22.784 1.152 33.088 5.824 2.624 1.728 6.016 2.368 9.856 2.048 3.904-0.32 7.168-1.856 9.856-4.544 5.056-4.736 9.6-11.968 13.44-21.568 3.968-9.6 6.592-19.392 7.936-29.184 0.64-5.696-0.256-10.24-2.816-13.44-2.56-3.2-5.12-5.312-7.808-6.336-10.624-3.776-19.52-10.24-27.008-19.584-7.36-9.344-11.136-19.904-11.136-31.68 0-11.52 3.136-21.632 9.344-30.272 6.208-8.64 14.528-14.72 24.64-18.496 2.304-1.344 4.352-2.624 6.08-4.096C743.936 145.184 746.304 141.152 747.712 136.416L747.712 136.416zM511.552 90.784c15.232 0 29.632 2.88 43.2 8.64 13.504 5.76 25.28 13.76 35.328 23.872 9.984 10.112 17.792 21.888 23.616 35.328 5.76 13.312 8.64 27.776 8.64 42.944 0 15.168-2.88 29.504-8.64 42.944-5.824 13.376-13.632 24.96-23.616 35.072-9.984 10.048-21.76 17.856-35.328 23.616C541.248 308.832 526.848 311.776 511.552 311.776S482.048 308.832 468.672 303.136c-13.376-5.76-25.088-13.632-35.072-23.616C423.616 269.408 415.744 257.824 409.984 244.448S401.408 216.736 401.408 201.504c0-15.104 2.816-29.568 8.576-42.944 5.76-13.376 13.568-25.152 23.616-35.328 9.92-10.112 21.632-18.112 35.072-23.872C482.048 93.664 496.32 90.784 511.552 90.784L511.552 90.784z"  horiz-adv-x="1025" />

    
    <glyph glyph-name="weibiaoti1" unicode="&#58884;" d="M668.96701 89.2096c-188.216076 0-341.333333 153.051429-341.333333 341.333333 0 188.413562 153.117257 341.462552 341.333333 341.462552 188.279467 0 341.59421-153.04899 341.59421-341.462552C1010.561219 242.261029 857.244038 89.2096 668.96701 89.2096zM668.96701 690.8096c-143.447771 0-260.269105-116.689676-260.269105-260.269105 0-143.445333 116.823771-260.137448 260.269105-260.137448 143.642819 0 260.334933 116.689676 260.334933 260.137448C929.301943 574.122362 812.609829 690.8096 668.96701 690.8096zM423.767771 128.51901c0.453486-0.492495 0.419352-1.270248-0.075581-1.721295L92.303848-176.591543c-0.494933-0.453486-1.270248-0.419352-1.721295 0.075581L8.916114-87.1232c-0.453486 0.494933-0.416914 1.270248 0.075581 1.723733L340.114286 217.9264c0.494933 0.453486 1.270248 0.419352 1.723733-0.073143L423.767771 128.51901z"  horiz-adv-x="1024" />

    
    <glyph glyph-name="tags" unicode="&#59296;" d="M511.462 589.682l307.854-307.496L614.064 76.942 306.37 384.818 306.37 589.682 511.462 589.682zM542.09 663.682l-309.72 0 0-309.5 381.68-381.904L924 282.214 542.09 663.682zM443.862 452.154c-21.236-21.238-55.674-21.238-76.906 0-21.236 21.238-21.236 55.672 0 76.906 21.232 21.238 55.67 21.238 76.906 0C465.104 507.826 465.104 473.392 443.862 452.154zM512-10.272l-53.408-53.41L100 294.858 100 574.56l72.328 0 0-245.238L512-10.272z"  horiz-adv-x="1024" />

    
    <glyph glyph-name="anonymous-iconfont" unicode="&#59184;" d="M835.75208-50.825181 188.682825-50.825181c-24.899086 0-45.073568 20.182668-45.073568 45.077661 0 24.8909 20.174482 45.073568 45.073568 45.073568l647.069255 0c24.899086 0 45.073568-20.182668 45.073568-45.073568C880.825648-30.642512 860.651167-50.825181 835.75208-50.825181L835.75208-50.825181zM835.75208-50.825181"  horiz-adv-x="1024" />

    
    <glyph glyph-name="heimingdan" unicode="&#59079;" d="M513.199827 746.332395c-246.537999 0-446.399933-199.861934-446.399933-446.399933 0-246.553349 199.861934-446.399933 446.399933-446.399933 246.553349 0 446.399933 199.846584 446.399933 446.399933C959.599759 546.470461 759.753175 746.332395 513.199827 746.332395zM513.199827-82.697075c-211.320916 0-382.629537 171.322947-382.629537 382.628514 0 94.183056 34.029024 180.417069 90.461291 247.080352l165.389818-165.389818c4.320399-39.651069 26.816762-73.840752 58.981323-94.068446-72.189136-27.369348-123.517151-97.156784-123.517151-178.936345l337.541643 0 100.846826-100.846826C693.608709-48.664981 607.375719-82.697075 513.199827-82.697075zM805.362956 52.85825 697.264982 160.9552c-16.556071 58.332547-60.10082 105.306394-116.275213 126.601396 35.888372 22.570042 59.752896 62.511729 59.752896 108.032482 0 70.436212-57.108672 127.542838-127.542838 127.542838-48.218188 0-90.184999-26.765597-111.865787-66.245773L266.120498 592.099684c66.663282 56.432267 152.897296 90.461291 247.079328 90.461291 211.304544 0 382.628514-171.308621 382.628514-382.629537C895.82834 205.755546 861.796246 119.523579 805.362956 52.85825z"  horiz-adv-x="1024" />

    
    <glyph glyph-name="refresh" unicode="&#58947;" d="M866.133333 257.333333M469.333333-84c-213.333333 0-384 170.666667-384 384 0 102.4 38.4 200.533333 110.933333 273.066667C268.8 645.6 366.933333 684 469.333333 684c213.333333 0 384-170.666667 384-384 0-25.6-17.066667-42.666667-42.666667-42.666667s-42.666667 17.066667-42.666667 42.666667c0 166.4-132.266667 298.666667-298.666667 298.666667C388.266667 598.666667 315.733333 568.8 256 513.333333c-55.466667-55.466667-85.333333-132.266667-85.333333-213.333333 0-166.4 132.266667-298.666667 298.666667-298.666667 81.066667 0 153.6 29.866667 213.333333 85.333333 17.066667 17.066667 42.666667 17.066667 59.733333 0 17.066667-17.066667 17.066667-42.666667 0-59.733333C669.866667-45.6 571.733333-84 469.333333-84zM810.666667 257.333333c-8.533333 0-17.066667 4.266667-25.6 8.533333L640 372.533333c-17.066667 12.8-21.333333 42.666667-8.533333 59.733333 12.8 17.066667 38.4 21.333333 59.733333 8.533333l145.066667-106.666667c17.066667-12.8 21.333333-42.666667 8.533333-59.733333C836.266667 261.6 823.466667 257.333333 810.666667 257.333333zM810.666667 257.333333c-8.533333 0-17.066667 4.266667-25.6 8.533333-17.066667 12.8-21.333333 42.666667-8.533333 59.733333L883.2 470.666667c12.8 17.066667 42.666667 21.333333 59.733333 8.533333 17.066667-12.8 21.333333-42.666667 8.533333-59.733333l-106.666667-145.066667C836.266667 261.6 823.466667 257.333333 810.666667 257.333333z"  horiz-adv-x="1024" />

    
    <glyph glyph-name="youqinglianjie" unicode="&#58903;" d="M844.7495 551.867378c0 0-210.441896 35.388998-350.886579 35.388998-140.353608 0-210.532971 70.780043-210.532971 70.780043L283.32995 728.821579l-70.177316 0 0-849.38917 70.177316 0L283.32995 304.126994c0 0 70.179362-70.78209 210.532971-70.78209s350.886579-35.393091 350.886579-35.393091L739.484038 374.90499 844.7495 551.867378z"  horiz-adv-x="1024" />

    
    <glyph glyph-name="screen" unicode="&#59010;" d="M896 709.6l-819.2 0c-42.3424 0-76.8-34.4576-76.8-76.8l0-512c0-42.3424 34.4576-76.8 76.8-76.8l384 0 0-102.4-179.2 0c-14.1312 0-25.6-11.4688-25.6-25.6s11.4688-25.6 25.6-25.6l409.6 0c14.1312 0 25.6 11.4688 25.6 25.6s-11.4688 25.6-25.6 25.6l-179.2 0 0 102.4 384 0c42.3424 0 76.8 34.4576 76.8 76.8l0 512c0 42.3424-34.4576 76.8-76.8 76.8zM921.6 120.8c0-14.1312-11.4688-25.6-25.6-25.6l-819.2 0c-14.1312 0-25.6 11.4688-25.6 25.6l0 512c0 14.1312 11.4688 25.6 25.6 25.6l819.2 0c14.1312 0 25.6-11.4688 25.6-25.6l0-512z"  horiz-adv-x="1024" />

    
    <glyph glyph-name="liuyan1" unicode="&#58968;" d="M958.876794 374.235748C976.083687 521.036185 840.425008 656.768543 655.880945 677.401466c-113.02724 12.642948-218.110553-20.87647-286.588157-82.438571 15.366989 1.476631 30.816866 2.360767 46.087665 2.360767 91.678002 0 179.591261-26.906813 247.512187-75.778894 71.953775-51.779294 116.76947-124.518968 126.165468-204.803479 8.379854-71.420633-12.339026-144.196123-58.292638-206.111265 94.717222-70.935586 181.468005-51.886741 161.318082-36.690644-56.282864 42.443671-68.24736 83.881432-64.698534 116.39494C899.760394 231.468161 949.794951 296.628206 958.876794 374.235748zM733.404576 310.214642c-15.706727 134.133953-153.594167 231.080959-318.025147 231.080959-15.548114 0-31.314193-0.871857-47.251164-2.64013C183.597505 518.008222 47.925522 382.276888 65.120137 235.489754c9.106402-77.620845 59.117422-142.767588 131.506103-183.903473 3.560082-32.513508-8.403391-73.962525-64.699558-116.406197-8.984628-6.769171 3.269463-14.312984 27.985378-14.312984 38.579667 0 107.529015 18.358113 173.597757 86.605473 16.322757-1.997494 33.045627-3.027963 50.034557-3.027963 15.426341 0 31.072693 0.848321 46.862307 2.616594C614.951767 27.694127 750.59919 163.415228 733.404576 310.214642z"  horiz-adv-x="1024" />

    
    <glyph glyph-name="shujuku" unicode="&#58893;" d="M526.017248 664.680746c-197.364043 0-357.336478-50.005904-357.336478-111.667266l0-89.331561c0-61.664432 159.972435-111.667266 357.336478-111.667266 197.358927 0 357.331361 50.002834 357.331361 111.667266l0 89.331561C883.34861 614.674842 723.376175 664.680746 526.017248 664.680746L526.017248 664.680746zM526.017248 285.013681c-197.364043 0-357.336478 50.002834-357.336478 111.667266l0-134.001947c0-61.660338 159.972435-111.667266 357.336478-111.667266 197.358927 0 357.331361 50.006927 357.331361 111.667266L883.34861 396.680946C883.34861 335.016515 723.376175 285.013681 526.017248 285.013681L526.017248 285.013681zM526.017248 84.010761c-197.364043 0-357.336478 50.006927-357.336478 111.667266l0-133.997853c0-61.664432 159.972435-111.667266 357.336478-111.667266 197.358927 0 357.331361 50.002834 357.331361 111.667266L883.34861 195.677003C883.34861 134.017688 723.376175 84.010761 526.017248 84.010761L526.017248 84.010761zM526.017248 84.010761"  horiz-adv-x="1024" />

    
    <glyph glyph-name="huancun" unicode="&#59080;" d="M146.473176 390.888354 107.789474 351.897667 492.118582-29.967562C519.240839-57.110029 561.329395-57.110029 588.521364-29.898038L970.105263 351.967192 931.282163 390.818829 566.364591 25.632135 566.364591 812 511.460433 812 511.460433 28.24064 146.473176 390.888354ZM0-158.105263 1077.894737-158.105263 1077.894737-212 0-212 0-158.105263Z"  horiz-adv-x="1078" />

    
    <glyph glyph-name="icontianjiashuiyin" unicode="&#58972;" d="M336.13913 453.6 467.478261 453.6 467.478261 141.947826 400.695652 141.947826 400.695652 52.904348 623.304348 52.904348 623.304348 141.947826 556.521739 141.947826 556.521739 453.6 690.086957 453.6 690.086957 386.817391 779.130435 386.817391 779.130435 542.643478 690.086957 542.643478 336.13913 542.643478 313.878261 542.643478 247.095652 542.643478 247.095652 386.817391 336.13913 386.817391ZM912.695652 720.730435l-801.391304 0c-24.486957 0-44.521739-20.034783-44.521739-44.521739l0-756.869565c0-24.486957 20.034783-44.521739 44.521739-44.521739l801.391304 0c24.486957 0 44.521739 20.034783 44.521739 44.521739l0 756.869565C957.217391 700.695652 939.408696 720.730435 912.695652 720.730435zM868.173913-36.13913l-712.347826 0 0 667.826087 712.347826 0L868.173913-36.13913z"  horiz-adv-x="1024" />

    
    <glyph glyph-name="listpress" unicode="&#58885;" d="M848.404 884l-670.252 0c-56.464 0-102.399-45.947-102.399-102.4l0-893.671c0-15.42 12.501-27.927 27.926-27.927 1.565 0 3.09 0.161 4.58 0.407 1.569-0.267 3.155-0.407 4.748-0.407 6.045 0 12.137 1.964 17.264 5.982l114.982 90.562 114.98-90.562c10.135-7.961 24.41-7.961 34.565 0l119.307 93.963 115.637-91.073c10.145-7.963 24.417-7.963 34.565 0l114.89 90.491 117.089-92.217c5.483-4.318 12.058-6.234 18.506-5.948 2.561-0.773 5.271-1.2 8.084-1.2 15.43 0 27.927 12.508 27.927 27.927l0 893.674c0.003 56.456-45.933 102.399-102.398 102.399zM245.892 713.238c0 9.382 7.605 16.985 16.985 16.985l351.472 0c9.38 0 16.985-7.605 16.985-16.985l0-27.439c0-9.382-7.605-16.985-16.985-16.985l-351.472 0c-9.382 0-16.985 7.605-16.985 16.985l0 27.439zM767.873 194.522c0-9.382-7.605-16.985-16.985-16.985l-488.011 0c-9.382 0-16.985 7.603-16.985 16.985l0 27.439c0 9.382 7.605 16.985 16.985 16.985l488.01 0c9.38 0 16.985-7.603 16.985-16.985l0-27.439zM767.873 358.281c0-9.382-7.605-16.985-16.985-16.985l-488.011 0c-9.382 0-16.985 7.603-16.985 16.985l0 27.439c0 9.382 7.605 16.985 16.985 16.985l488.01 0c9.38 0 16.985-7.605 16.985-16.985l0-27.439zM767.873 522.039c0-9.382-7.605-16.985-16.985-16.985l-488.011 0c-9.382 0-16.985 7.605-16.985 16.985l0 27.439c0 9.382 7.605 16.985 16.985 16.985l488.01 0c9.38 0 16.985-7.605 16.985-16.985l0-27.439z"  horiz-adv-x="1024" />

    
    <glyph glyph-name="tags1" unicode="&#60133;" d="M222.6 641.7c17.9 0 32.5-14.6 32.5-32.5s-14.6-32.5-32.5-32.5-32.5 14.6-32.5 32.5S204.7 641.7 222.6 641.7M222.6 705.7c-53.3 0-96.5-43.2-96.5-96.5 0-53.3 43.2-96.5 96.5-96.5S319 556 319 609.3C319 662.6 275.9 705.7 222.6 705.7L222.6 705.7zM1004 376.3 555.3 829.3c-8.5 8.6-20.1 13.5-32.4 13.5L342.6 842.8l-92.3 0L70 842.8c-38.6 0-70-31-70-69.2L0 494c0-11.9 4.7-23.2 13.2-31.7l448.2-442.9c13.7-13.5 31.6-20.3 49.5-20.3 17.9 0 35.8 6.8 49.5 20.3l40.6 40.2 40.6-40.2c13.7-13.5 31.6-20.3 49.5-20.3s35.8 6.8 49.5 20.3L1003.5 279C1030.6 305.8 1030.8 349.2 1004 376.3zM555.6 104.5l-40.1-39.6c-1.2-1.2-2.7-1.8-4.5-1.8-1.8 0-3.3 0.6-4.5 1.8L64 502.1 64 773.7c0 2.8 2.8 5.2 6 5.2l110.5 0 69.8 0 84.7 0 443.3-447.6c0.4-0.4 1.4-1.5 1.4-3.4 0-1.7-0.8-2.7-1.5-3.3l-177.1-175L555.6 104.5zM958.5 324.5 695.7 64.9c-1.2-1.2-2.7-1.8-4.5-1.8-1.8 0-3.3 0.6-4.5 1.8l-40.1 39.6L823.2 279c27.1 26.8 27.3 70.1 0.5 97.3L425 778.9l90.2 0 443.3-447.6c0.4-0.4 1.4-1.5 1.4-3.4C960 326.2 959.2 325.2 958.5 324.5z"  horiz-adv-x="1024" />

    
    <glyph glyph-name="shujuku1" unicode="&#59599;" d="M64.303027 199.236949 64.303027 199.226716 64.30405 199.236949ZM959.69595 199.226716 959.69595 199.236949 959.694927 199.236949ZM511.986185 125.013481c-247.25022 0-447.683159 33.223682-447.683159 74.213235l0-183.305863c0-40.989553 200.433962-74.219375 447.683159-74.219375 247.257383 0 447.709765 33.230845 447.709765 74.219375L959.69595 199.226716C959.69595 158.237163 759.243569 125.013481 511.986185 125.013481zM64.303027 456.763211 64.303027 456.754001 64.30405 456.763211ZM511.986185 382.532579c-247.25022 0-447.683159 33.230845-447.683159 74.220399L64.303027 273.448138c0-40.990576 200.433962-74.220399 447.683159-74.220399 247.257383 0 447.709765 33.230845 447.709765 74.220399L959.69595 456.754001C959.69595 415.763424 759.243569 382.532579 511.986185 382.532579zM959.69595 456.754001 959.69595 456.763211 959.694927 456.763211ZM959.694927 752.076076c-0.030699 40.98546-200.469777 74.221422-447.708741 74.221422-247.230778 0-447.651436-33.235962-447.682136-74.221422l-0.001023 0L64.303027 568.764074c0-40.992623 200.433962-74.222445 447.683159-74.222445 247.257383 0 447.709765 33.230845 447.709765 74.222445L959.694927 752.076076 959.694927 752.076076z"  horiz-adv-x="1024" />

    
    <glyph glyph-name="shujuku2" unicode="&#59682;" d="M64.303027 199.236949 64.303027 199.226716 64.30405 199.236949ZM959.69595 199.226716 959.69595 199.236949 959.694927 199.236949ZM511.986185 125.013481c-247.25022 0-447.683159 33.223682-447.683159 74.213235l0-183.305863c0-40.989553 200.433962-74.219375 447.683159-74.219375 247.257383 0 447.709765 33.230845 447.709765 74.219375L959.69595 199.226716C959.69595 158.237163 759.243569 125.013481 511.986185 125.013481zM64.303027 456.763211 64.303027 456.754001 64.30405 456.763211ZM511.986185 382.532579c-247.25022 0-447.683159 33.230845-447.683159 74.220399L64.303027 273.448138c0-40.990576 200.433962-74.220399 447.683159-74.220399 247.257383 0 447.709765 33.230845 447.709765 74.220399L959.69595 456.754001C959.69595 415.763424 759.243569 382.532579 511.986185 382.532579zM959.69595 456.754001 959.69595 456.763211 959.694927 456.763211ZM959.694927 752.076076c-0.030699 40.98546-200.469777 74.221422-447.708741 74.221422-247.230778 0-447.651436-33.235962-447.682136-74.221422l-0.001023 0L64.303027 568.764074c0-40.992623 200.433962-74.222445 447.683159-74.222445 247.257383 0 447.709765 33.230845 447.709765 74.222445L959.694927 752.076076 959.694927 752.076076z"  horiz-adv-x="1024" />

    
    <glyph glyph-name="qingchuhuancun1" unicode="&#59328;" d="M989.589333 649.706667c45.845333 45.888 45.845333 120.554667 0 166.442667-22.272 22.229333-51.797333 34.474667-83.242667 34.474667-31.424 0-60.992-12.224-82.496-33.792l-217.621333-198.272c-13.44-13.482667-33.941333-18.346667-52.074667-12.288l-119.616 39.893333c-33.322667 11.093333-70.954667 2.176-95.808-22.634667l-104.682667-104.682667c-4.010667-3.989333-6.250667-9.429333-6.250667-15.104 0-5.674667 2.24-11.093333 6.250667-15.104l408.746667-408.746667c4.16-4.181333 9.621333-6.272 15.082667-6.272 5.504 0 10.965333 2.048 15.125333 6.293333l104.704 104.661333c25.258667 25.194667 33.92 61.909333 22.634667 95.786667l-39.872 119.637333c-6.122667 18.453333-1.386667 38.378667 11.584 51.392L989.589333 649.706667zM719.914667 386.453333l39.829333-119.616c6.122667-18.410667 1.408-38.378667-12.288-52.074667l-89.621333-89.536L279.317333 503.744l89.6 89.557333c13.482667 13.482667 34.005333 18.346667 52.074667 12.309333l119.68-39.893333c33.258667-11.114667 71.338667-1.941333 95.082667 21.930667L853.333333 785.92c28.330667 28.352 77.717333 28.352 106.048 0 29.205333-29.226667 29.205333-76.8 0.704-105.386667l-217.536-198.250667C717.248 457.066667 708.586667 420.352 719.914667 386.453333zM213.141333 467.776c-8 8-22.229333 8-30.229333 0-42.752-42.794667-124.544-83.392-169.088-100.224-6.805333-2.624-11.818667-8.448-13.333333-15.530667-1.536-7.104 0.661333-14.485333 5.781333-19.605333L415.061333-76.373333c4.074667-4.032 9.536-6.272 15.104-6.272 2.538667 0 5.077333 0.469333 7.573333 1.344 41.301333 15.637333 132.949333 58.794667 184.170667 110.037333 8.362667 8.405333 8.362667 21.845333 0 30.208L213.141333 467.776zM435.306667-36.245333 59.050667 340.032c40.725333 18.218667 97.386667 48.170667 138.325333 83.029333l378.453333-378.453333C535.509333 11.093333 475.690667-19.584 435.306667-36.245333zM896.426667 685.44c19.968 0 36.16 16.170667 36.16 36.138667 0 19.925333-16.256 36.117333-36.16 36.096-19.861333 0-36.053333-16.149333-36.053333-36.096C860.352 701.610667 876.544 685.44 896.426667 685.44z"  horiz-adv-x="1024" />

    
    <glyph glyph-name="buchongiconsvg06" unicode="&#58976;" d="M660.551 631.636c-30.006 0-58.216-11.685-79.433-32.902s-32.902-49.427-32.902-79.433c0-30.006 11.685-58.216 32.902-79.433 21.217-21.217 49.427-32.902 79.433-32.902s58.216 11.685 79.433 32.902c43.8 43.8 43.8 115.067 0 158.866-21.217 21.216-49.427 32.902-79.433 32.902zM703.803 476.049c-11.553-11.554-26.913-17.916-43.252-17.916s-31.699 6.362-43.252 17.916c-11.553 11.553-17.916 26.913-17.916 43.251 0 16.339 6.363 31.699 17.916 43.252 11.553 11.554 26.913 17.916 43.252 17.916s31.699-6.362 43.252-17.916c23.848-23.849 23.848-62.654 0-86.503zM852.704 711.452c-51.325 51.325-119.567 79.591-192.152 79.591s-140.826-28.266-192.152-79.591c-38.676-38.676-64.522-87.414-74.743-140.946-8.884-46.522-5.573-94.067 9.517-138.543l-35.861-35.86-31.992 31.993c-13.385 13.387-31.231 20.759-50.247 20.759-19.017 0-36.862-7.372-50.248-20.759-27.704-27.705-27.705-72.785-0.001-100.49l31.992-31.994-21.865-21.865-31.99 31.991c-13.385 13.387-31.232 20.759-50.248 20.759s-36.861-7.372-50.249-20.76c-27.702-27.705-27.702-72.785 0.001-100.489l32.445-32.448c-17.307-21.304-26.714-47.759-26.714-75.721 0-32.192 12.469-62.387 35.105-85.023 22.636-22.636 52.83-35.101 85.019-35.101s62.384 12.465 85.020 35.101l249.87 249.863c28.085-9.532 57.395-14.355 87.353-14.355 72.581 0 140.816 28.263 192.136 79.584 51.324 51.325 79.59 119.566 79.59 192.151 0.003 72.586-28.263 140.827-79.587 192.152zM816.522 363.33c-41.656-41.656-97.041-64.597-155.955-64.597-29.052 0-57.336 5.577-84.067 16.577-9.553 3.931-20.525 1.734-27.826-5.568l-261.509-261.503c-12.972-12.971-30.317-20.115-48.841-20.115-18.523 0-35.868 7.143-48.84 20.115-12.973 12.972-20.117 30.317-20.117 48.842s7.144 35.87 20.118 48.842l9.243 9.243c9.991 9.991 9.991 26.19 0 36.181l-50.081 50.083c-7.754 7.755-7.754 20.375 0 28.129 3.722 3.722 8.718 5.772 14.066 5.772s10.344-2.050 14.065-5.772l50.081-50.082c4.797-4.797 11.305-7.494 18.091-7.494 6.785 0 13.292 2.696 18.091 7.493l58.048 58.046c9.991 9.991 9.991 26.19 0.001 36.181l-50.083 50.085c-7.754 7.755-7.754 20.374 0.001 28.13 3.722 3.722 8.718 5.772 14.066 5.772 5.348 0 10.343-2.050 14.065-5.772l50.081-50.084c4.797-4.797 11.305-7.494 18.091-7.494 6.785 0 13.292 2.696 18.091 7.493l65.592 65.59c7.302 7.302 9.498 18.277 5.568 27.827-34.005 82.633-15.157 176.848 48.019 240.023 41.662 41.661 97.053 64.605 155.971 64.605s114.309-22.944 155.971-64.605c86.002-86.003 86.002-225.938-0-311.941z"  horiz-adv-x="1025" />

    
    <glyph glyph-name="buchongiconsvg15" unicode="&#58985;" d="M292.629-1.189h-130.195c13.141 181.37 164.907 324.909 349.569 324.909 43.341 0 84.869-7.908 123.218-22.355l39.267 39.267c-2.040 0.903-4.075 1.81-6.133 2.681-11.345 4.799-22.853 9.049-34.501 12.76 18.548 10.671 35.812 23.852 51.35 39.39 46.264 46.264 71.742 107.775 71.742 173.202 0 65.427-25.478 126.938-71.742 173.202-46.264 46.264-107.775 71.742-173.202 71.742s-126.937-25.478-173.201-71.742c-46.264-46.264-71.742-107.775-71.742-173.202 0-65.427 25.478-126.938 71.742-173.202 15.538-15.538 32.802-28.718 51.35-39.39-11.649-3.712-23.156-7.962-34.501-12.76-47.832-20.232-90.785-49.189-127.664-86.068-36.88-36.88-65.838-79.832-86.068-127.665-20.952-49.536-31.575-102.14-31.575-156.352 0-14.129 11.453-25.584 25.584-25.584h156.702c14.13 0 25.584 11.454 25.584 25.584s-11.454 25.583-25.584 25.583zM318.227 568.664c0 106.849 86.927 193.776 193.776 193.776s193.776-86.928 193.776-193.776-86.928-193.776-193.776-193.776-193.776 86.928-193.776 193.776zM882.089 129.58c-18.228 43.096-43.561 82.212-75.368 116.513l-36.323-36.323c51.762-56.496 85.305-129.946 91.174-210.959h-130.222c-14.129 0-25.584-11.454-25.584-25.584s11.454-25.584 25.584-25.584h156.73c14.129 0 25.584 11.454 25.584 25.584-0 54.212-10.623 106.817-31.575 156.352zM791.548 344.987c-9.992 9.991-26.19 9.991-36.181 0l-244.12-244.12-107.032 107.031c-9.992 9.991-26.19 9.991-36.181 0s-9.991-26.19 0-36.181l125.123-125.122c4.996-4.995 11.542-7.493 18.091-7.493s13.095 2.498 18.091 7.493l262.211 262.211c9.989 9.99 9.989 26.19-0.002 36.181z"  horiz-adv-x="1025" />

    
    <glyph glyph-name="tuichu-copy" unicode="&#58904;" d="M512 754.789c-31.726 0-57.449-25.724-57.449-57.449v-287.291c0-31.726 25.724-57.449 57.449-57.449s57.449 25.724 57.449 57.449v287.291c0 31.726-25.724 57.449-57.449 57.449zM512 13.211c-202.96 0-368.1 165.141-368.1 368.1 0 113.438 51.145 218.812 140.274 289.169 18.701 14.692 45.793 11.541 60.532-7.138 14.738-18.679 11.564-45.793-7.137-60.532-68.294-53.88-107.459-134.619-107.459-221.5 0-155.429 126.462-281.916 281.916-281.916 155.429 0 281.892 126.485 281.892 281.916 0 86.903-39.188 167.665-107.552 221.546-18.701 14.738-21.9 41.829-7.162 60.532 14.762 18.679 41.829 21.877 60.507 7.162 89.22-70.333 140.39-175.754 140.39-289.238 0-202.96-165.141-368.101-368.1-368.101z"  horiz-adv-x="1024" />

    
    <glyph glyph-name="03" unicode="&#59038;" d="M959.944007 347.268591c0 141.230346-71.287089 265.694788-179.753531 339.733533 2.111736 8.766904 3.51956 17.853768 3.51956 27.324584 0 64.823897-52.601425 117.425322-117.489314 117.425322-49.465817 0-91.572553-30.588176-108.914386-73.846769-2.87964 0.063992-5.695288 0.447944-8.574928 0.447944-225.059868 0-407.629046-180.777403-410.95663-405.005374C94.580177 336.005999 64.055993 293.899263 64.055993 244.56143c0-64.823897 52.601425-117.425322 117.489314-117.425322 6.527184 0 12.862392 0.895888 19.133608 1.91976 72.758905-115.697538 201.254843-192.807899 347.988501-192.807899 55.289089 0 108.018498 11.070616 156.204474 30.908136 20.861392-19.005624 48.377953-30.908136 78.774153-30.908136 64.887889 0 117.489314 52.601425 117.489314 117.489314 0 21.181352-6.015248 40.762905-15.870016 57.912761C932.235471 178.393701 959.944007 259.535558 959.944007 347.268591zM843.414573 154.268716c-17.533808 10.430696-37.819273 16.829896-59.704537 16.829896-64.887889 0-117.489314-52.601425-117.489314-117.489314 0-12.606424 2.495688-24.572928 6.207224-35.963505-38.523185-14.462192-80.117985-22.71716-123.696538-22.71716-122.928634 0-230.947132 62.968129-294.043245 158.31621 26.812648 21.501312 44.410449 54.201225 44.410449 91.316585 0 59.640545-44.602425 108.338458-102.131234 115.889514 6.911136 188.520435 161.579803 339.221597 351.764029 339.221597 0.511936 0 0.95988-0.063992 1.471816-0.063992 7.295088-57.848769 56.184977-102.707162 116.017498-102.707162 34.043745 0 64.439945 14.71816 85.941257 37.819273 90.100737-63.800025 149.101362-168.618923 149.101362-287.388076C901.19935 275.981502 879.826022 209.749781 843.414573 154.268716z"  horiz-adv-x="1024" />

    
    <glyph glyph-name="tubiao48" unicode="&#58975;" d="M320.176137 390.561439l56.091506 0 10.915607-29.302373 21.840424 0-49.382711 133.196605-21.037129 0-49.083905-133.196605 19.932981 0L320.176137 390.561439 320.176137 390.561439zM343.911724 454.435189l4.009314 13.396101 4.504594-13.396101 19.237133-50.564629-46.478568 0L343.911724 454.435189 343.911724 454.435189zM343.911724 454.435189M207.735251 668.986683l606.758154 0 0-37.119409-606.758154 0L207.735251 668.986683 207.735251 668.986683zM207.735251 668.986683M252.281817 740.76752l517.664 0 0-37.121456-517.664 0L252.281817 740.76752 252.281817 740.76752zM252.281817 740.76752M962.711122 448.23293l-38.542828-37.697577-105.559151 104.712877 38.543851 37.694507c11.719926 11.722996 30.15274 13.408381 40.202631 3.357468l69.535703-67.864644C976.116433 478.39795 974.442304 459.967182 962.711122 448.23293L962.711122 448.23293 962.711122 448.23293 962.711122 448.23293 962.711122 448.23293 962.711122 448.23293zM800.189631 497.665783l-179.281199-175.09076-25.142633-27.622104-48.592718-44.393069c-1.659803-0.849344-5.015224-5.862521-5.849218-10.064216-0.835018-0.846274-0.835018-0.846274-0.835018-1.674129l-41.898249-129.848347c-1.658779-4.200672-0.823761-7.556093 1.684362-10.064216 2.51631-2.51631 6.705726-2.51631 10.060123-1.681292l132.357494 41.052998c0.847298 0.835018 0.847298 0.835018 1.684362 0.835018 5.0142 0.833995 8.380878 4.189416 9.214872 5.024433l252.991991 249.647827L800.189631 497.665783zM565.602825 134.913968l-27.644617 27.643594 17.594727 54.457286 65.355497-64.494896L565.602825 134.913968zM796.001239 443.207473l-197.714014-194.3545c-3.340071-3.344165-10.04989-3.344165-13.401218 0-4.193509 3.350304-4.193509 10.060123 0 13.404288l198.557218 194.356546c3.340071 3.340071 10.04989 3.340071 13.405311 0C800.189631 452.423369 800.189631 446.562894 796.001239 443.207473zM869.031533 76.727755 868.488157 332.614679 822.309418 285.773861 822.753533 76.727755 202.27796 76.770733 201.275119 548.886351 821.74967 549.069523 821.767066 540.874887 867.947851 586.657606 867.934548 593.240535 867.928409 598.5781 154.866137 598.366276 154.896836 548.869978 155.002236 548.869978 156.112524 27.457608 178.366364 27.51082 178.366364 27.274436 869.1267 27.23248 869.1267 27.569148 869.13284 27.569148 869.1267 31.094438 869.13284 76.727755ZM660.989289 379.395122 712.490244 428.929282 460.291314 428.73997 460.297454 379.243673ZM600.517009 321.232444 278.692327 321.085088 278.710746 271.589814 549.031405 271.713634ZM482.098993 207.337441 278.692327 207.24432 278.710746 157.748023 430.613388 157.818631Z"  horiz-adv-x="1024" />

    
    <glyph glyph-name="unfold1" unicode="&#59168;" d="M890.336 565.089c-12.576 12.416-32.8 12.352-45.248-0.192l-327.84-330.848-332.416 329.44c-12.577 12.448-32.8 12.352-45.28-0.192-12.448-12.577-12.352-32.832 0.192-45.28l353.312-350.112c0.544-0.544 1.248-0.672 1.792-1.184 0.128-0.128 0.16-0.288 0.288-0.416 6.24-6.176 14.4-9.28 22.528-9.28 8.224 0 16.48 3.168 22.72 9.472l350.112 353.312c12.48 12.576 12.384 32.832-0.16 45.28z"  horiz-adv-x="1024" />

    
    <glyph glyph-name="xitong" unicode="&#58892;" d="M351.623168 743.47008c15.976448 0 29.646848-5.53472 41.015296-16.59392 11.368448-11.060224 17.052672-24.58112 17.052672-40.552448l0-230.429696c0-15.976448-5.684224-29.650944-17.052672-41.020416-11.368448-11.363328-25.038848-17.048576-41.015296-17.048576L121.193472 397.825024c-15.976448 0-29.497344 5.684224-40.557568 17.048576-11.0592 11.369472-16.5888 25.042944-16.5888 41.020416L64.047104 686.323712c0 15.972352 5.5296 29.492224 16.5888 40.552448 11.060224 11.0592 24.58112 16.59392 40.557568 16.59392L351.623168 743.47008 351.623168 743.47008zM351.623168 282.612736c15.976448 0 29.646848-5.5296 41.015296-16.594944 11.368448-11.0592 17.052672-24.574976 17.052672-40.551424l0-231.351296c0-15.976448-5.684224-29.497344-17.052672-40.557568-11.368448-11.0592-25.038848-16.5888-41.015296-16.5888L121.193472-63.031296c-15.976448 0-29.497344 5.530624-40.557568 16.5888-11.0592 11.060224-16.5888 24.58112-16.5888 40.557568L64.047104 225.466368c0 15.976448 5.5296 29.492224 16.5888 40.551424 11.060224 11.06432 24.58112 16.594944 40.557568 16.594944L351.623168 282.612736 351.623168 282.612736zM813.402112 282.612736c15.976448 0 29.492224-5.5296 40.552448-16.594944 11.065344-11.0592 16.59392-24.574976 16.59392-40.551424l0-231.351296c0-15.976448-5.528576-29.497344-16.59392-40.557568-11.060224-11.0592-24.576-16.5888-40.552448-16.5888L582.97344-63.031296c-15.977472 0-29.651968 5.530624-41.015296 16.5888-11.369472 11.060224-17.052672 24.58112-17.052672 40.557568L524.905472 225.466368c0 15.976448 5.6832 29.492224 17.052672 40.551424 11.363328 11.06432 25.037824 16.594944 41.015296 16.594944L813.402112 282.612736 813.402112 282.612736zM941.519872 642.080768c12.290048-12.290048 18.432-26.732544 18.432-43.322368 0-16.5888-6.142976-30.722048-18.432-42.399744L770.080768 384.919552c-12.290048-12.284928-26.57792-18.432-42.858496-18.432-16.285696 0-30.573568 6.147072-42.858496 18.432L512.923648 556.358656c-11.677696 11.677696-17.51552 25.810944-17.51552 42.399744 0 16.589824 5.837824 31.03232 17.51552 43.322368L684.362752 813.519872c12.284928 11.672576 26.5728 17.5104 42.858496 17.5104 16.280576 0 30.568448-5.837824 42.858496-17.5104L941.519872 642.080768zM941.519872 642.080768"  horiz-adv-x="1024" />

    
    <glyph glyph-name="fcstubiao19" unicode="&#59039;" d="M474.25536 786.47296c-246.784 0-446.93504-200.15104-446.93504-446.976C27.32032 92.59008 227.47136-107.52 474.25536-107.52c135.29088 0 256.38912 60.17024 338.35008 155.07456L474.25536 339.51744 474.25536 786.47296zM996.67968 428.48256C996.67968 675.45088 796.63104 875.52 549.80608 875.52l0-447.03744L996.67968 428.48256zM549.80608 365.54752 888.0128 73.64608c67.6864 78.336 108.66688 180.36736 108.66688 291.90144L549.80608 365.54752z"  horiz-adv-x="1024" />

    
    <glyph glyph-name="more1170511easyiconnet" unicode="&#59041;" d="M511.968 480c-53.024 0-96.016-42.992-96.016-96.016 0-53.008 42.992-96.016 96.016-96.016 53.024 0 96.032 43.008 96.032 96.016C608 437.008 564.992 480 511.968 480zM511.968 591.984C564.992 591.984 608 634.976 608 688c0 53.008-43.008 96-96.032 96-53.024 0-96.016-42.976-96.016-96.016C415.952 634.96 458.944 591.984 511.968 591.984zM511.968 176c-53.024 0-96.016-43.008-96.016-96.016s42.992-96.016 96.016-96.016c53.024 0 96.032 43.008 96.032 96.016S564.992 176 511.968 176z"  horiz-adv-x="1024" />

    
    <glyph glyph-name="a130" unicode="&#59057;" d="M492.8 825.536c0 0-447.68-414.848 0-885.184v-65.6c0 0-464.128 18.432-490.816 509.248 0 0-8.192 455.872 490.816 509.312v-67.776zM492.8 825.536c0 0 437.44 12.992 460.672-441.536 0 0 4.096-428.48-460.672-443.648v-65.6c0 0 490.816-15.104 529.216 509.248 0 0 1.344 492.864-529.216 509.312l0-67.776zM351.616 624.768c0 0 102.208-31.296 141.184-24.448v225.28l34.944-1.344-0.064-255.36c0 0-87.872-8.96-189.76 24.96 0-0.064 10.56 24.256 13.696 30.912zM527.744 400.448h195.776c0 0-2.176 145.344-36.672 195.2l31.232 10.176c0 0 54.080-134.208 39.36-238.272l-229.696 0.064v32.832zM759.936 399.040h192.704c0 0 0.192-24.384 0-31.424l-195.2-0.064c0 0 2.496 23.296 2.496 31.488zM348.032 145.6c0 0 68.8 26.176 144.832 23.424v198.528l34.944 0.064v-230.080c0 0-108.544 3.712-164.48-22.144l-15.296 30.208zM527.744 170.432c0 0 121.792-9.6 147.84-27.456 0 0 52.096 124.928 47.936 224.576h33.92c0 0-2.432-143.744-62.656-267.008 0 0-94.272 39.296-166.976 36.992l-0 32.896zM694.72 100.544c0 0 74.688-22.336 105.856-54.976l24.064 22.4c0 0-84.48 59.712-116.8 61.888l-13.12-29.312zM492.8 137.408v-197.056l34.88 2.048 0.064 195.136zM662.656 112.384c0 0-62.464-121.472-134.912-169.984 0 0 28.48 1.344 57.856 7.36 0 0 85.888 94.72 109.184 150.784l-32.128 11.84zM527.68 598.912c0 0 106.88 0 147.904 27.392 0 0-83.456 168.512-147.84 197.888 0 0 53.504-6.656 64.896-9.024 0 0 114.496-142.336 125.44-209.344 0 0-111.040-38.592-190.4-36.928v30.016zM708.352 636.672c0 0 108.352 51.712 111.744 67.264l23.232-23.68c0 0-94.144-64.32-125.312-74.432l-9.664 30.848zM294.272 399.040h198.528v168.704l34.88 1.152 0.064-201.28h-233.472c0 0-2.176 0.512 0 31.424z"  horiz-adv-x="1024" />

    
    <glyph glyph-name="a536" unicode="&#58988;" d="M111.332 535.004c0.856 2.452 1.736 4.896 2.562 7.358 6.672 19.874 24.038 33.182 45.198 34.626 19.21 1.312 38.572-9.972 47.528-27.7 9.134-18.080 6.53-39.486-6.722-55.158-1.506-1.78-3.058-3.52-4.864-5.596 37.39-22.886 74.444-45.572 111.502-68.248 14.072-8.61 28.094-17.3 42.26-25.752 7.956-4.748 14.176-3.34 18.542 4.6 42.624 77.518 85.116 155.108 128.024 233.364-18.638 9.428-30.496 23.754-31.582 45.1-0.758 14.91 4.478 27.81 15.174 38.238 21.070 20.542 55.532 18.512 73.964-4.2 21.122-26.030 13.57-56.476-20.132-79.45 11.012-20.092 22.048-40.244 33.098-60.388 30.844-56.228 61.69-112.454 92.544-168.676 7.132-12.994 11.72-14.238 24.272-6.556 47.796 29.248 95.584 58.508 143.37 87.774 2.188 1.34 4.322 2.766 6.866 4.398-9.828 9.826-16.1 21.080-16.852 34.81-1.414 25.784 16.244 48.242 41.138 52.538 25.798 4.452 49.798-10.266 57.442-35.206 0.606-1.976 1.332-3.918 2.002-5.874 0-5.768 0-11.534 0-17.302-8.162-25.996-24.816-41.144-53.422-41.38-0.98-2.962-2.052-5.888-2.922-8.872-27.97-95.954-55.922-191.914-83.878-287.872-3.636-12.476-8.004-15.856-20.658-15.858-160.936-0.018-321.872-0.030-482.81-0.032-13.506 0-17.762 3.202-21.446 15.86-22.67 77.876-45.338 155.752-68.030 233.62-6.14 21.072-12.362 42.12-18.558 63.22-21.372 0.016-37.538 8.434-47.674 26.986-2.464 4.51-3.984 9.538-5.938 14.328 0.002 5.766 0.002 11.532 0.002 17.3zM513.99 113.422c75.222 0 150.444 0.054 225.666-0.036 20.12-0.024 36.188-14.206 38.414-33.378 2.228-19.198-10.502-36.862-29.84-41.202-2.78-0.624-5.708-0.812-8.568-0.812-150.444-0.036-300.888-0.052-451.332-0.002-17.198 0.006-31.546 10.256-36.674 25.716-5.136 15.486-0.428 33.012 13.412 41.77 7.11 4.5 16.462 7.574 24.83 7.638 74.694 0.576 149.394 0.336 224.092 0.336 0-0.012 0-0.020 0-0.030z"  horiz-adv-x="1024" />

    
    <glyph glyph-name="cuowu" unicode="&#59067;" d="M512 843.904c253.592576 0 459.905024-206.312448 459.905024-459.905024S765.592576-75.905024 512-75.905024 52.094976 130.407424 52.094976 384 258.407424 843.904 512 843.904M512 896c-282.769408 0-512-229.230592-512-512s229.230592-512 512-512c282.769408 0 512 229.230592 512 512S794.769408 896 512 896L512 896zM360.597504 481.949696m-67.290112 0a65.713 65.713 0 1 0 134.580224 0 65.713 65.713 0 1 0-134.580224 0ZM663.402496 481.949696m-67.290112 0a65.713 65.713 0 1 0 134.580224 0 65.713 65.713 0 1 0-134.580224 0ZM330.89024 177.32096c-4.744192 0-9.53856 1.284096-13.850624 4.005888-12.171264 7.656448-15.835136 23.733248-8.165376 35.917824 44.42624 70.614016 120.712192 112.776192 204.0576 112.776192 81.755136 0 157.26592-40.953856 201.984-109.545472 7.846912-12.044288 4.451328-28.184576-7.605248-36.0448s-28.184576-4.43904-36.0448 7.605248c-35.052544 53.774336-94.244864 85.889024-158.333952 85.889024-65.323008 0-125.125632-33.055744-159.9744-88.43264C348.009472 181.633024 339.551232 177.32096 330.89024 177.32096zM715.373568 414.660608c0 0-23.71584-85.81632 14.40256-92.565504C767.894528 315.344896 784.335872 371.994624 715.373568 414.660608zM260.263936 514.58048c-7.56736 0-15.071232 3.280896-20.222976 9.61536-9.080832 11.154432-7.389184 27.56096 3.777536 36.641792l111.326208 90.530816c11.180032 9.094144 27.548672 7.389184 36.641792-3.777536 9.080832-11.154432 7.389184-27.56096-3.777536-36.641792L276.682752 520.418304C271.850496 516.488192 266.038272 514.58048 260.263936 514.58048zM763.728896 514.58048c-5.774336 0-11.58656 1.907712-16.41984 5.837824L635.983872 610.94912c-11.16672 9.080832-12.858368 25.488384-3.777536 36.641792 9.094144 11.14112 25.475072 12.858368 36.641792 3.777536l111.326208-90.530816c11.16672-9.080832 12.858368-25.488384 3.777536-36.641792C778.801152 517.8624 771.29728 514.58048 763.728896 514.58048z"  horiz-adv-x="1024" />

    
    <glyph glyph-name="danxuankuanghouxuan" unicode="&#59177;" d="M511.998 847.999C255.739 847.999 48 640.26 48 383.999c0-256.258 207.739-463.998 463.998-463.998C768.261-79.999 976 127.742 976 383.999 976 640.26 768.261 847.999 511.998 847.999zM512.002-16.001c-220.915 0-400.002 179.088-400.002 400 0 220.917 179.086 400 400.002 400 220.912 0 399.998-179.083 399.998-400C912 163.087 732.914-16.001 512.002-16.001z"  horiz-adv-x="1024" />

    
    <glyph glyph-name="faxianhover" unicode="&#59207;" d="M922.481 630.559l-175.405-121.091c23.771-40.919 37.615-88.297 37.615-138.923 0-98.905-52.128-185.671-130.198-234.878-1.269-28.399-24.508-51.077-53.207-51.077-14.063 0-26.761 5.543-36.304 14.432-18.719-4-38.093-6.198-57.999-6.198-153.136 0-277.723 124.587-277.723 277.723s124.587 277.709 277.723 277.709c87.859 0 166.189-41.137 217.116-105.022l175.349 121.051c-89.429 119.276-231.93 196.458-392.465 196.458-270.732 0-490.195-219.463-490.195-490.195s219.463-490.209 490.195-490.209c270.732 0 490.195 219.463 490.195 490.195 0 95.559-27.429 184.647-74.698 260.028zM506.982 607.403c-130.608 0-236.871-106.251-236.871-236.858s106.263-236.871 236.871-236.871c13.981 0 27.594 1.447 40.906 3.782 0 0.205-0.054 0.382-0.054 0.587 0 29.519 23.934 53.453 53.453 53.453 15.292 0 28.986-6.499 38.735-16.794 62.614 42.667 103.834 114.524 103.834 195.843 0 42.025-11.114 81.456-30.393 115.712l-165.751-114.429c0.014-0.437 0.137-0.847 0.137-1.297 0-22.556-18.295-40.851-40.851-40.851-22.556 0-40.851 18.295-40.851 40.851s18.295 40.851 40.851 40.851c6.909 0 13.312-1.871 19.019-4.901l164.495 113.555c-43.486 53.276-109.582 87.367-183.529 87.367z"  horiz-adv-x="1024" />

    
    <glyph glyph-name="chongzhi1" unicode="&#59060;" d="M512 824.778912c-243.434312 0-440.778912-197.3446-440.778912-440.777889 0-243.434312 197.343577-440.777889 440.778912-440.777889 243.433288 0 440.776865 197.343577 440.776865 440.777889C952.777889 627.433288 755.434312 824.778912 512 824.778912L512 824.778912zM717.530027 173.739229c-13.213953-13.459546-35.481096-19.944238-66.798359-19.453051l-56.772005 0c-43.719734 0-65.577554 24.468275-65.577554 73.407893l0 133.602857-55.054897-2.447748c-8.157797-112.235201-60.765969-184.336332-157.825538-216.307488-19.906375 27.078729-36.380582 48.123021-49.430806 63.130829 84.176145 23.323195 130.665968 73.163323 139.476635 149.504012-33.278941-2.12029-58.728566-4.321422-76.345806-6.604418l-25.448602 58.237379c36.375465 21.530362 74.547857 55.299467 114.51922 101.298104L273.906324 508.107599l0 64.602344 199.176318 0-17.618263 40.615023 71.452355 15.666818 23.000853-56.281841L741.757824 572.709943l0-64.602344L507.096317 508.107599c-29.03836-31.807427-61.256132-63.293535-96.655364-94.449115 45.840024 0.649799 107.669208 2.284019 185.480388 4.894474l-52.368718 51.387367 47.960315 37.19104c50.243311-43.392276 98.367355-87.603197 144.370085-132.6256l-50.40704-47.469128-36.707017 38.172391-51.872415-1.710968 0-124.06155c0-16.968463 8.642844-25.448602 25.933649-25.448602l19.088754 0c14.353916 0 23.813359 4.52813 28.385491 13.58132 4.561899 9.051143 8.807596 33.234939 12.724813 72.552409 18.267039-8.485255 41.105187-17.45965 68.515467-26.919093C742.081189 220.352873 730.746026 187.194682 717.530027 173.739229L717.530027 173.739229zM717.530027 173.739229"  horiz-adv-x="1024" />

    
    <glyph glyph-name="information" unicode="&#58998;" d="M956 88.8h-298.4c-16.8 0-29.6 13.6-29.6 29.6 0 16.8 13.6 29.6 29.6 29.6h299.2c16.8 0 29.6-13.6 29.6-29.6s-13.6-29.6-30.4-29.6zM956 268.8h-298.4c-16.8 0-29.6 13.6-29.6 29.6 0 16.8 13.6 29.6 29.6 29.6h299.2c16.8 0 29.6-13.6 29.6-29.6 0-16.8-13.6-29.6-30.4-29.6zM508 331.2v-3.2c-198.4 0-358.4-173.6-358.4-388.8 0-10.4 0.8-20 1.6-29.6h-120c-0.8 9.6-1.6 20-1.6 29.6 0 201.6 110.4 375.2 270.4 456.8-55.2 49.6-91.2 120-91.2 200 0 148.8 120.8 268.8 268.8 268.8 148.8 0 268.8-120.8 268.8-268.8 0.8-136.8-104-249.6-238.4-264.8zM478.4 746.4c-82.4 0-149.6-67.2-149.6-149.6s67.2-148.8 149.6-148.8 149.6 67.2 149.6 149.6-67.2 148.8-149.6 148.8zM657.6-30.4h299.2c16.8 0 29.6-13.6 29.6-29.6 0-16.8-13.6-29.6-29.6-29.6h-299.2c-16.8 0-29.6 13.6-29.6 29.6-0.8 16 12.8 29.6 29.6 29.6z"  horiz-adv-x="1024" />

    
    <glyph glyph-name="fabu" unicode="&#58963;" d="M509.015982 879.419638c-275.295113 0-498.466596-223.171483-498.466596-498.466596s223.171483-498.466596 498.466596-498.466596 498.466596 223.171483 498.466596 498.466596S784.311094 879.419638 509.015982 879.419638zM769.835128 359.213715 530.755309 359.213715l0-239.079819-43.478656 0L487.276654 359.213715 248.196835 359.213715l0 43.478656L487.276654 402.69237 487.276654 641.772189l43.478656 0L530.755309 402.69237l239.079819 0L769.835128 359.213715z"  horiz-adv-x="1024" />

    
    <glyph glyph-name="guanbi" unicode="&#58962;" d="M511.999488-0.843972c-209.051223 0-380.092761 171.041538-380.092761 380.092761 0 90.273003 33.257451 180.544983 95.02319 251.812119 19.004843 19.004843 47.512107 23.75503 66.515926 4.751211 19.004843-19.003819 23.756053-47.511083 4.751211-66.515926-47.512107-52.263317-71.26816-118.779244-71.26816-190.046381 0-156.785859 128.281665-285.069571 285.069571-285.069571 156.788929 0 285.069571 128.282688 285.069571 285.069571 0 71.26816-23.756053 137.784086-71.26816 190.046381-19.004843 19.004843-14.253632 47.512107 4.751211 66.515926 19.004843 19.003819 47.512107 14.253632 66.51695-4.751211 61.763692-71.267137 95.022167-156.787906 95.022167-251.812119C892.091226 170.197566 721.049688-0.843972 511.999488-0.843972zM559.511595 483.774401c0-23.756053-19.004843-47.512107-47.512107-47.512107l0 0c-28.506241 0-47.512107 19.003819-47.512107 47.512107L464.487382 721.331865c0 23.756053 19.004843 47.512107 47.512107 47.512107l0 0c23.75503 0 47.512107-19.004843 47.512107-47.512107L559.511595 483.774401z"  horiz-adv-x="1024" />

    
    <glyph glyph-name="zuixiaohua" unicode="&#59185;" d="M189.952236 448.160275l644.651182 0 0-64.160275-644.651182 0 0 64.160275Z"  horiz-adv-x="1024" />

    
    <glyph glyph-name="you" unicode="&#58931;" d="M639.616 382.272C639.872 392 636.48 401.728 629.12 409.088L446.272 591.936c-14.272 14.272-37.376 14.272-51.648 0s-14.272-37.312 0-51.584l158.592-158.656-158.4-158.464c-14.272-14.272-14.272-37.376 0-51.648s37.312-14.272 51.648 0L629.248 354.56C636.864 362.176 640.128 372.288 639.616 382.272z"  horiz-adv-x="1024" />

    
    <glyph glyph-name="no-certification" unicode="&#59188;" d="M782.582 335.933c-2.432 0-4.838-0.061-7.24-0.143-27.581 18.452-58.952 34.76-94.648 47.954-0.092 0.036-0.179 0.067-0.271 0.108 63.882 47.032 105.585 122.491 105.585 207.718 0 142.305-115.784 258.094-258.104 258.094-142.31 0-258.104-115.784-258.104-258.094 0-86.272 42.706-162.575 107.919-209.454-0.031-0.010-0.067-0.026-0.097-0.036-297.462-106.619-297.462-427.976-297.462-427.976h63.959c0 0 33.172 383.759 383.785 383.759 60.442 0 111.432-11.356 154.45-30.157-54.968-33.741-91.628-94.403-91.628-163.62 0-105.964 85.893-191.862 191.862-191.862 46.51 0 89.16 16.558 122.373 44.093 22.953 19.036 41.395 43.32 53.499 71.014 10.271 23.501 15.985 49.454 15.985 76.749-0.005 105.958-85.903 191.852-191.862 191.852zM527.898 397.455c-107.049 0-194.14 87.076-194.14 194.109 0 107.054 87.091 194.13 194.14 194.13 107.049 0 194.14-87.076 194.14-194.13 0-107.034-87.086-194.109-194.14-194.109zM910.945 65.096l-56.924-55.665-73.452 75.11-75.689-74.025-54.932 56.156 75.699 74.030-74.209 75.894 56.924 55.654 74.209-75.878 73.805 72.182 54.927-56.156-73.815-72.187 73.457-75.116z"  horiz-adv-x="1024" />

    
    <glyph glyph-name="diannao4" unicode="&#59043;" d="M1047.04 896 79.36 896C35.84 896 0 860.16 0 814.08l0-696.32c0-46.08 35.84-81.92 79.36-81.92l371.2 0c-64-35.84-110.08-81.92-110.08-81.92-33.28 0-61.44-17.92-61.44-40.96 0-23.04 28.16-40.96 61.44-40.96l483.84 0c33.28 0 61.44 17.92 61.44 40.96 0 23.04-28.16 40.96-61.44 40.96 0 0-46.08 46.08-107.52 81.92l327.68 0c43.52 0 79.36 35.84 79.36 81.92L1123.84 814.08C1126.4 860.16 1090.56 896 1047.04 896L1047.04 896zM1047.04 363.52c0-46.08-35.84-81.92-79.36-81.92L161.28 281.6c-43.52 0-79.36 35.84-79.36 81.92L81.92 732.16c0 46.08 35.84 81.92 79.36 81.92l803.84 0c43.52 0 79.36-35.84 79.36-81.92L1047.04 363.52 1047.04 363.52zM1047.04 363.52"  horiz-adv-x="1124" />

    
    <glyph glyph-name="jjshmima" unicode="&#58886;" d="M685.74102 833.870987c-150.7197 0-272.89939-122.180713-272.89939-272.898367 0-31.265074 5.327332-61.271482 15.006785-89.24458L98.884125 145.195126c-47.220465-47.222511-47.220465-123.782188 0-171.002652 47.222511-47.220465 123.782188-47.220465 171.002652 0l22.733771 22.565948 65.892733 0c15.312754 0 27.725458 12.412704 27.725458 27.725458l0 64.3721 64.3721 0c15.312754 0 27.725458 12.412704 27.725458 27.725458l0 64.520479L600.019683 301.886841c26.965142-8.918114 55.763025-13.81361 85.720314-13.81361 150.717653 0 272.898367 122.180713 272.898367 272.89939C958.638363 711.690274 836.458673 833.870987 685.74102 833.870987zM751.235686 539.140383c-46.723138 0-84.59877 37.876656-84.59877 84.59877 0 46.723138 37.876656 84.597747 84.59877 84.597747 46.723138 0 84.59877-37.874609 84.59877-84.597747C835.834456 577.017038 797.958824 539.140383 751.235686 539.140383z"  horiz-adv-x="1024" />

    
    <glyph glyph-name="shouquanzhengpin" unicode="&#59194;" d="M919.6 769.9 543.6 890.3c-20.5 6.5-42.8 6.5-63.3 0L104.4 769.9c-31.9-10.2-53.3-39.4-53.3-72.7l0-264.2c0-152.6 74.2-297.8 198.5-388.2l216.8-157.5c13.4-9.7 29.2-14.9 45.7-14.9 16.6 0 32.4 5.1 45.7 14.8l216.8 157.7c124.3 90.5 198.5 235.6 198.5 388.2L973.1 697.3C972.9 730.5 951.5 759.7 919.6 769.9zM120.4 721.5 496.2 841.9c5.1 1.7 10.5 2.5 16 2.5 5.4 0 10.7-0.8 15.8-2.5l375.9-120.4c10.7-3.4 18-13.2 18-24.3l0-13.6-819.4 0 0 13.6C102.4 708.5 109.7 718.2 120.4 721.5zM921.8 433.1l-0.2 0c0-136.7-66.4-266.4-177.6-347.3L527.3-71.8c-9-6.5-21.7-6.6-30.7 0L279.9 85.9c-111.2 80.8-177.6 210.7-177.6 347.2L102.3 632.4l819.4 0L921.8 433.1 921.8 433.1zM808 559.4 441.1 222.5 287 420.9c-8.6 11.1-24.6 13.1-35.6 4.5-11.1-8.6-13.1-24.5-4.5-35.6l171-220.2c4.4-5.6 10.9-9.1 17.9-9.7 0.7-0.1 1.4-0.1 2.1-0.1 6.3 0 12.5 2.4 17.2 6.7L842.3 522c10.3 9.5 11 25.5 1.5 35.9C834.3 568.2 818.3 568.8 808 559.4z"  horiz-adv-x="1024" />

    
    <glyph glyph-name="weibiaoti2zhuanhuan" unicode="&#59061;" d="M1024 384c0-265.088-222.08-480-496-480C254.048-96 32 118.912 32 384S254.048 864 528 864C801.92 864 1024 649.088 1024 384zM859.968 680.256l0.64-2.496 1.632 0C861.504 678.624 860.672 679.392 859.968 680.256zM286.944 781.888 284.512 762.304c2.912 1.44 5.536 3.392 8.512 4.8L293.024 764.8l10.912-32.64 10.912-10.88 10.912 0 0-21.76-21.856-10.88L282.08 677.76 271.168 656c0 0-2.72-19.04-10.912-21.76s-9.536-14.944-10.912-21.76c-1.376-6.816 0-21.76 0-21.76L227.488 601.6 194.752 623.36 172.928 634.24l10.912 32.64 10.912 32.64L183.648 693.984c8.032 7.328 17.152 13.44 25.728 20.16L216.608 732.16 215.936 731.968C176.448 698.496 142.112 659.104 115.744 614.24c14.112 21.024 29.6 41.056 47.072 59.328L151.104 656 140.192 645.12l-21.824-32.64L109.024 603.2C107.328 600.128 105.952 596.928 104.32 593.824L118.368 579.84l21.824-10.88c0 0 27.296-9.504 32.736-21.76 5.44-12.224 21.824-32.64 21.824-32.64l0-10.88 10.912-21.76L172.928 492.8l-21.856 10.88L129.28 514.56l-21.824-10.88 0-10.88 21.824-10.88 10.912-10.88c0 0-13.664-8.16-21.824-10.88-8.192-2.72-32.736-21.76-32.736-21.76l-21.824-21.76-10.304-20.544c-0.128-4.064-0.64-8-0.64-12.096 0-37.568 5.056-73.888 13.632-108.8l19.136 0 43.648-10.88 21.824-10.88 21.856-10.88 21.824-10.88 21.824-32.64 32.736 10.88 21.824 0 0-10.88 0-21.76-10.912-21.76c0 0-12.288-10.88-21.824-21.76-9.536-10.88-4.096-6.784-21.824-21.76-17.728-14.944-6.816-9.504-21.824-21.76-15.008-12.224 0-8.16-10.912-21.76-0.608-0.768-1.024-1.472-1.568-2.24 83.328-85.728 199.84-139.2 329.024-139.2 253.184 0 458.432 204.608 458.432 456.96 0 6.016-0.672 11.872-0.896 17.824l-20.928-6.944-21.824-32.64 0-43.52-10.912 0-10.912 0c0 0-16.384 16.32-21.824 21.76-5.472 5.44 0 21.76 0 21.76l-10.912 32.64-32.736 21.76-32.736 10.88-21.824 21.76-21.856 0 32.736-32.64 10.912-21.76L784.192 384l-21.856-21.76 10.912-21.76-21.824-21.76L729.6 296.96l-10.912-32.64 10.912-21.76-10.912-43.52-32.736-32.64-21.824-43.52-21.824-10.88-32.736 10.88-21.824 32.64-10.912 43.52 0 32.64 0 32.64-10.912 21.76 0 10.88-21.824 10.88-43.648 0-21.824 10.848-32.736 10.88-10.912 43.52 0 32.672 43.68 43.52 21.824 10.88 32.736 21.76c0 0 21.856-4.096 32.736-10.88 10.912-6.784 21.824-21.76 21.824-21.76l32.736 0 43.648-10.88 21.824 21.76 21.856 10.88-32.736 10.88-21.824 10.88-32.736 10.88-32.736 10.88-32.736 0L533.12 492.8l-54.56-10.88-21.856 10.88 21.856 21.76 21.824 10.88 10.912 10.88L511.296 547.2l-21.824 10.88-21.824 21.76 10.912 21.76 10.912 10.912 10.912 0 10.912-21.792 21.824-10.88 21.856 0 21.824 10.88L576.8 612.512l-32.736 0L544.064 634.24l21.824 10.88 21.824 21.76 10.912 32.64 32.736 21.76 32.736-10.88 21.824 0 10.912-32.64 10.912-21.76L729.6 677.76l32.736 10.88 43.68 10.88 27.68 9.216C750.88 790.432 637.024 840.96 511.296 840.96 429.632 840.96 353.28 819.264 286.944 781.888zM478.56-62.048 478.56-62.048c1.024 0 2.048 0.064 3.072 0.064C480.608-62.016 479.584-62.048 478.56-62.048zM478.56-62.048c-1.056 0-2.048 0.064-3.104 0.064C476.512-62.016 477.504-62.048 478.56-62.048L478.56-62.048zM576.8-51.2 576.8-51.2c1.024 0 2.048 0.064 3.072 0.064C578.848-51.104 577.824-51.2 576.8-51.2zM576.8-51.2c-1.056 0-2.048 0.064-3.104 0.064C574.72-51.104 575.744-51.2 576.8-51.2L576.8-51.2zM512-128C229.216-128 0 101.248 0 384S229.216 896 512 896c282.752 0 512-229.216 512-512S794.752-128 512-128zM512 832c-247.424 0-448-200.576-448-448s200.576-448 448-448c247.424 0 448 200.576 448 448S759.424 832 512 832z"  horiz-adv-x="1024" />

    
    <glyph glyph-name="cf-c57" unicode="&#58957;" d="M931.2 668.8h-534.4c-19.2 0-35.2 19.2-35.2 41.6s16 41.6 35.2 41.6h534.4c19.2 0 35.2-19.2 35.2-41.6-0-22.4-16-41.6-35.2-41.6v0 0zM931.2 361.6h-534.4c-19.2 0-35.2 19.2-35.2 41.6s16 41.6 35.2 41.6h534.4c19.2 0 35.2-19.2 35.2-41.6-0-22.4-16-41.6-35.2-41.6v0 0zM931.2 36.8h-534.4c-19.2 0-35.2 19.2-35.2 41.6s16 41.6 35.2 41.6h534.4c19.2 0 35.2-19.2 35.2-41.6-0-24-16-41.6-35.2-41.6v0 0zM171.2 0c-44.8 0-80 35.2-80 80s35.2 80 80 80c44.8 0 80-35.2 80-80 0-44.8-35.2-80-80-80v0 0zM171.2 320c-44.8 0-80 35.2-80 80 0 44.8 35.2 80 80 80 44.8 0 80-35.2 80-80 0-43.2-35.2-80-80-80v0 0zM171.2 641.6c-44.8 0-80 35.2-80 80 0 44.8 35.2 80 80 80 44.8 0 80-35.2 80-80 0-44.8-35.2-80-80-80v0 0zM404.8 120z"  horiz-adv-x="1024" />

    
    <glyph glyph-name="gerenxinxi1" unicode="&#58981;" d="M929.297616 790.29861 93.865319 790.29861c-17.23043 0-31.159674-13.96813-31.159674-31.18935l0-722.255655c0-17.249873 13.928221-31.198559 31.159674-31.198559L265.029654 5.655046c17.209964 0 31.15865 13.948687 31.15865 31.198559l0 56.494689c0 15.569604 12.707416 28.278043 28.316929 28.278043 15.609513 0 28.316929-12.70844 28.316929-28.278043l0-56.494689c0-17.249873 13.948687-31.198559 31.159674-31.198559l255.17675 0c17.23043 0 31.179117 13.948687 31.179117 31.198559l0 56.494689c0 15.569604 12.70844 28.278043 28.297486 28.278043 15.609513 0 28.316929-12.70844 28.316929-28.278043l0-56.494689c0-17.249873 13.96813-31.198559 31.18014-31.198559l171.165358 0c17.23043 0 31.179117 13.948687 31.179117 31.198559L960.476733 759.10926C960.476733 776.33048 946.528046 790.29861 929.297616 790.29861M898.1185 68.014302 789.290909 68.014302l0 25.335015c0 49.971112-40.665165 90.655719-90.655719 90.655719-49.971112 0-90.655719-40.684608-90.655719-90.655719l0-25.335015L415.161976 68.014302l0 25.335015c0 49.971112-40.665165 90.655719-90.655719 90.655719-50.030463 0-90.655719-40.684608-90.655719-90.655719l0-25.335015L125.02397 68.014302 125.02397 727.920934 898.1185 727.920934 898.1185 68.014302zM283.721365 500.111484c0-7.764847 5.963829-14.159488 13.367449-14.159488 0.060375 0 0.140193 0.039909 0.240477 0.039909 2.761903-37.300534 32.119535-74.652234 68.022233-74.652234 35.882232 0 65.259306 37.3517 68.022233 74.652234 0.079818 0 0.119727-0.039909 0.220011-0.039909 7.424086 0 13.348006 6.39464 13.348006 14.159488 0 5.77247-3.241834 10.715039-7.90504 12.927427 2.701528 8.405437 4.182252 17.339924 4.182252 26.705222 0 45.589314-34.860972 82.601276-77.867462 82.601276s-77.907371-37.011962-77.907371-82.601276c0-9.365298 1.480724-18.299785 4.161786-26.705222C287.003108 510.826524 283.721365 505.882931 283.721365 500.111484M199.869608 279.02311 530.812973 279.02311c4.002151 0 7.243985 3.201925 7.243985 7.243985l0 25.916253c0 1.982144-0.800225 3.861958-2.200108 5.243421-31.79924 30.879288-70.623477 52.656267-112.38972 63.073524-1.101077 0.549515-2.221598 0.881067-3.461845 0.881067l-3.802606 0c-1.200338 0-2.361791-0.291642-3.402493-0.881067-12.647041-6.735401-29.937846-10.616802-47.448662-10.616802s-34.860972 3.8814-47.449685 10.656711c-1.060145 0.549515-2.241041 0.841158-3.442402 0.841158l-2.741437 0c-0.540306 0-1.140986-0.039909-1.700735-0.192382-42.806945-10.146081-82.610486-32.204469-115.210975-63.763233-1.420349-1.381463-2.180666-3.2623-2.180666-5.243421l0-25.916253C192.625624 282.225035 195.867458 279.02311 199.869608 279.02311M586.587254 386.684132l232.002958 0c6.884804 0 12.467963 5.611811 12.467963 12.496615 0 6.843872-5.583159 12.468986-12.467963 12.468986L586.587254 411.649733c-6.884804 0-12.467963-5.624091-12.467963-12.468986C574.119291 392.295943 579.70245 386.684132 586.587254 386.684132M586.587254 485.270475l232.002958 0c6.884804 0 12.467963 5.574972 12.467963 12.478196 0 6.884804-5.583159 12.456706-12.467963 12.456706L586.587254 510.205377c-6.884804 0-12.467963-5.571902-12.467963-12.456706C574.119291 490.845447 579.70245 485.270475 586.587254 485.270475"  horiz-adv-x="1024" />

    
    <glyph glyph-name="guanggao" unicode="&#58918;" d="M61.46591-64.529433 61.46591 533.017942l144.852062 0L719.90819 831.145923l171.198104-298.129005 66.686818 0L957.793112-64.529433 61.46591-64.529433zM685.150572 700.706105 396.269185 533.017942l385.172453 0L685.150572 700.706105zM858.201883 433.430806 161.057139 433.430806l0-398.367987 697.143721 0L858.20086 433.430806zM459.833897 184.450175 260.644275 184.450175l0 99.592252 199.188598 0L459.832873 184.450175zM758.604514 184.450175 559.425126 184.450175l0 99.592252 199.179388 0L758.604514 184.450175z"  horiz-adv-x="1024" />

    
    <glyph glyph-name="bk-database" unicode="&#59062;" d="M335.082-50.65c-180.006 0-325.997 72.986-325.997 162.998v0 91.758c0-90.125 145.99-146.085 325.997-146.085s325.979 55.959 325.979 146.085v-91.758c0-90.031-145.972-162.998-325.979-162.998v0zM335.082 112.331c-180.006 0-325.997 72.986-325.997 162.998v91.74c0-90.087 145.99-146.047 325.997-146.047s325.979 55.959 325.979 146.047v-91.74c0-90.013-145.972-162.998-325.979-162.998v0zM335.082 275.328c-180.006 0-325.997 73.005-325.997 163.018v91.721c0-90.087 145.99-146.047 325.997-146.047s325.979 55.959 325.979 146.047v-91.721c0-90.013-145.972-163.018-325.979-163.018v0zM335.082 438.345c-180.006 0-325.997 72.986-325.997 162.998v54.327c0 90.031 145.99 162.998 325.997 162.998s325.979-72.967 325.979-162.998v-54.327c0-90.031-145.972-162.998-325.979-162.998v0zM335.082 438.345zM689.961 629.368c0-21.42 37.371-38.786 83.471-38.786s83.471 17.366 83.471 38.786c0 0 0 0 0 0 0 21.42-37.371 38.786-83.471 38.786-46.101 0-83.471-17.366-83.471-38.786 0 0 0 0 0 0zM689.961 363.388c0 0 0 0 0 0 0-21.411 37.371-38.77 83.471-38.77 46.101 0 83.471 17.357 83.471 38.77 0 0 0 0 0 0 0 0 0 0 0 0 0 21.411-37.371 38.77-83.471 38.77-46.101 0-83.471-17.357-83.471-38.77s0 0 0 0zM689.961 97.425c0-21.42 37.371-38.786 83.471-38.786s83.471 17.366 83.471 38.786c0 0 0 0 0 0 0 21.42-37.371 38.786-83.471 38.786-46.101 0-83.471-17.366-83.471-38.786 0 0 0 0 0 0zM752.871 605.636h51.146v-511.467h-51.146v511.467zM970.222 605.636h51.146v-511.467h-51.146v511.467zM867.929 656.782h153.44v-51.146h-153.44v51.146zM867.929 128.266h153.44v-51.146h-153.44v51.146z"  horiz-adv-x="1024" />

    
    <glyph glyph-name="guanbi-copy" unicode="&#58883;" d="M481.458 832.373c-264.081 0-478.159-214.079-478.159-478.162 0-264.080 214.079-478.16 478.159-478.16 264.064 0 478.143 214.080 478.143 478.16-0 264.083-214.079 478.162-478.143 478.162zM683.379 152.673c-0.007-0.008-0.015-0.016-0.024-0.024-13.293-13.293-34.845-13.306-48.154-0.021l-153.681 153.406-153.407-153.699c-0.008-0.007-0.016-0.017-0.024-0.023-13.294-13.294-34.844-13.307-48.153-0.024-13.333 13.309-13.355 34.878-0.063 48.195l153.407 153.698-153.7 153.41c-13.315 13.292-13.337 34.861-0.046 48.177 0.008 0.007 0.016 0.015 0.024 0.024 13.275 13.275 34.827 13.288 48.136 0.004l153.698-153.408 153.393 153.702c0.008 0.007 0.016 0.015 0.023 0.023 13.294 13.294 34.846 13.306 48.171 0.006 13.317-13.292 13.336-34.861 0.046-48.177l-153.409-153.701 153.701-153.408c13.315-13.292 13.337-34.863 0.062-48.16z"  horiz-adv-x="1024" />

    
    <glyph glyph-name="shuiyin" unicode="&#59120;" d="M512 896C229.230482 896 0 666.769518 0 384s229.230482-512 512-512 512 229.230482 512 512S794.769518 896 512 896zM512-76.799488c-254.492183 0-460.799488 206.307305-460.799488 460.799488S257.507817 844.799488 512 844.799488s460.799488-206.307305 460.799488-460.799488S766.492183-76.799488 512-76.799488zM230.400384 128.00256l271.756564 0L502.156948 221.091724 320.983345 221.091724l0 116.364335 181.173602 0 0 93.091724L320.983345 430.547782l0 116.364335 181.173602 0 0 93.089164L230.400384 640.00128 230.400384 128.00256zM547.450348 128.00256l90.582961 0L638.03331 546.913396l90.582961 0L728.616271 221.091724l-45.289561 0 0-93.089164L819.200512 128.00256 819.200512 640.00256 547.450348 640.00256 547.450348 128.00256z"  horiz-adv-x="1024" />

    
    <glyph glyph-name="gou" unicode="&#58964;" d="M1396.363636 774.981818c0 0-223.418182-74.472727-484.072727-372.363636-242.036364-269.963636-297.890909-381.672727-390.981818-530.618182C512-118.690909 372.363636 151.272727 0 346.763636l195.490909 186.181818c0 0 176.872727-121.018182 297.890909-344.436364 0 0 307.2 474.763636 902.981818 707.490909L1396.363636 774.981818 1396.363636 774.981818zM1396.363636 774.981818"  horiz-adv-x="1397" />

    
    <glyph glyph-name="fold9" unicode="&#59169;" d="M934.374 268.607l-403.941 400.246c-0.586 0.586-1.396 0.771-2.015 1.317-0.145 0.145-0.184 0.363-0.331 0.513-14.371 14.189-37.53 14.115-51.757-0.223l-400.212-403.902c-14.233-14.377-14.122-37.496 0.217-51.724 7.132-7.060 16.461-10.611 25.754-10.611 9.399 0 18.837 3.623 25.969 10.828l374.757 378.156 380.052-376.548c7.134-7.055 16.426-10.603 25.754-10.603 9.438 0 18.837 3.623 25.972 10.828 14.233 14.34 14.12 37.492-0.219 51.725v0zM934.374 268.607z"  horiz-adv-x="1024" />

    
    <glyph glyph-name="gongyongshuangjiantouyou" unicode="&#59277;" d="M516.09978 674.070676 516.09978 674.070676c8.901964 0 17.819319-3.401494 24.606717-10.173702l255.276123-255.260733c13.605775-13.590386 13.605775-35.623048 0-49.228823L540.721887 104.131495c-13.605775-13.605775-35.623048-13.605775-49.228823 0-13.605775 13.590386-13.605775 35.623048 0 49.228823L722.131691 384.014134 491.492864 614.637572c-13.605775 13.605775-13.605775 35.623048 0 49.228823C498.280462 670.684572 507.197816 674.070676 516.09978 674.070676L516.09978 674.070676zM252.626615 674.070676 252.626615 674.070676c8.932544 0 17.834508-3.401494 24.652685-10.173702l255.260733-255.260733c13.605775-13.590386 13.605775-35.623048 0-49.228823L277.279301 104.131495c-13.605775-13.605775-35.623048-13.605775-49.228823 0-13.605775 13.590386-13.605775 35.623048 0 49.228823L458.689105 384.014134 228.019699 614.637572c-13.605775 13.605775-13.605775 35.623048 0 49.228823C234.807297 670.684572 243.724651 674.070676 252.626615 674.070676L252.626615 674.070676z"  horiz-adv-x="1024" />

    
    <glyph glyph-name="emizhifeiji" unicode="&#59204;" d="M502.237757-128 644.426501 66.320699 502.237757 107.283556 502.237757-128 502.237757-128ZM0 329.286183 403.967637 206.911934 901.485385 629.33997 515.916344 174.31966 947.825442 40.900352 1170.285714 896 0 329.286183 0 329.286183Z"  horiz-adv-x="1171" />

    
    </font>
</defs>
</svg>
